<svg width="262" height="182" viewBox="0 0 262 182" fill="none" xmlns="http://www.w3.org/2000/svg">
<g clip-path="url(#clip0)">
<path d="M49.7052 39.0711C57.9693 39.0711 64.6687 32.3673 64.6687 24.0977C64.6687 15.8282 57.9693 9.12439 49.7052 9.12439C41.4411 9.12439 34.7417 15.8282 34.7417 24.0977C34.7417 32.3673 41.4411 39.0711 49.7052 39.0711Z" fill="#FF6584"/>
<path d="M122.508 80.2762C122.508 115.607 101.519 127.943 75.6266 127.943C49.7347 127.943 28.7451 115.607 28.7451 80.2762C28.7451 44.9458 75.6266 0 75.6266 0C75.6266 0 122.508 44.9458 122.508 80.2762Z" fill="#F2F2F2"/>
<path d="M73.9187 122.538L74.399 92.9699L94.3809 56.3896L74.4743 88.3315L74.6901 75.0363L88.4617 48.5709L74.7471 71.5181L75.1352 47.6061L89.8823 26.5363L75.1965 43.8459L75.4389 0L73.9145 58.0442L74.0399 55.6496L59.0466 32.6849L73.7995 60.2462L72.4025 86.9516L72.3609 86.2429L55.0762 62.076L72.3085 88.747L72.1339 92.0868L72.1026 92.1371L72.1168 92.4113L68.5726 160.165H73.3081L73.8762 125.169L91.066 98.5632L73.9187 122.538Z" fill="#3F3D56"/>
<path d="M262 94.7466C262 123.666 244.819 133.764 223.625 133.764C202.431 133.764 185.25 123.666 185.25 94.7466C185.25 65.8269 223.625 29.0366 223.625 29.0366C223.625 29.0366 262 65.8269 262 94.7466Z" fill="#F2F2F2"/>
<path d="M222.227 129.34L222.62 105.137L238.976 75.1943L222.682 101.34L222.859 90.4575L234.131 68.7941L222.905 87.5775L223.223 68.0045L235.294 50.7578L223.273 64.9268L223.472 29.0366L222.224 76.5484L222.326 74.5886L210.054 55.7907L222.13 78.3511L220.986 100.211L220.952 99.6305L206.804 79.8487L220.909 101.68L220.766 104.414L220.741 104.455L220.752 104.68L217.851 160.139H221.727L222.192 131.493L236.263 109.715L222.227 129.34Z" fill="#3F3D56"/>
<path d="M129.666 165.763C201.279 165.763 259.333 162.826 259.333 159.204C259.333 155.582 201.279 152.645 129.666 152.645C58.0536 152.645 0 155.582 0 159.204C0 162.826 58.0536 165.763 129.666 165.763Z" fill="#3F3D56"/>
<path d="M208.658 171.164C220.924 171.164 230.867 170.661 230.867 170.04C230.867 169.42 220.924 168.917 208.658 168.917C196.392 168.917 186.449 169.42 186.449 170.04C186.449 170.661 196.392 171.164 208.658 171.164Z" fill="#3F3D56"/>
<path d="M128.293 182C140.559 182 150.502 181.497 150.502 180.877C150.502 180.256 140.559 179.753 128.293 179.753C116.028 179.753 106.084 180.256 106.084 180.877C106.084 181.497 116.028 182 128.293 182Z" fill="#3F3D56"/>
<path d="M67.323 174.357C95.3454 174.357 118.062 173.208 118.062 171.791C118.062 170.373 95.3454 169.224 67.323 169.224C39.3006 169.224 16.584 170.373 16.584 171.791C16.584 173.208 39.3006 174.357 67.323 174.357Z" fill="#3F3D56"/>
<path d="M22.6986 150.966C32.8996 150.966 41.1692 142.691 41.1692 132.484C41.1692 122.276 32.8996 114.001 22.6986 114.001C12.4976 114.001 4.22803 122.276 4.22803 132.484C4.22803 142.691 12.4976 150.966 22.6986 150.966Z" fill="#2F2E41"/>
<path d="M19.7223 146.955L14.1113 146.889L13.9929 156.948L19.6038 157.015L19.7223 146.955Z" fill="#2F2E41"/>
<path d="M30.9439 147.087L25.333 147.021L25.2146 157.081L30.8255 157.147L30.9439 147.087Z" fill="#2F2E41"/>
<path d="M23.3434 157.176C23.3548 156.206 21.2706 155.396 18.6883 155.366C16.1059 155.335 14.0033 156.096 13.9919 157.065C13.9804 158.034 16.0646 158.845 18.647 158.875C21.2293 158.905 23.332 158.145 23.3434 157.176Z" fill="#2F2E41"/>
<path d="M34.5675 157.074C34.5789 156.105 32.4948 155.295 29.9124 155.264C27.3301 155.234 25.2274 155.995 25.216 156.964C25.2046 157.933 27.2887 158.743 29.8711 158.773C32.4534 158.804 34.5561 158.043 34.5675 157.074Z" fill="#2F2E41"/>
<path d="M23.2214 134.127C26.7079 134.127 29.5342 131.299 29.5342 127.81C29.5342 124.322 26.7079 121.493 23.2214 121.493C19.735 121.493 16.9087 124.322 16.9087 127.81C16.9087 131.299 19.735 134.127 23.2214 134.127Z" fill="white"/>
<path d="M23.2214 129.916C24.3836 129.916 25.3257 128.973 25.3257 127.81C25.3257 126.647 24.3836 125.705 23.2214 125.705C22.0593 125.705 21.1172 126.647 21.1172 127.81C21.1172 128.973 22.0593 129.916 23.2214 129.916Z" fill="#3F3D56"/>
<path d="M4.98496 115.085C3.57235 108.384 8.41899 101.688 15.8102 100.127C23.2015 98.567 30.3384 102.734 31.7511 109.435C33.1637 116.136 28.2491 118.543 20.8578 120.103C13.4666 121.663 6.39758 121.786 4.98496 115.085Z" fill="#5CD9D8"/>
<path d="M50.8741 142.795C50.8741 155.68 43.2193 160.179 33.7759 160.179C33.5571 160.179 33.3387 160.177 33.1206 160.172C32.6831 160.163 32.2497 160.142 31.8216 160.113C23.2991 159.509 16.6777 154.778 16.6777 142.795C16.6777 130.393 32.5154 114.744 33.705 113.586L33.7071 113.584C33.753 113.539 33.7759 113.517 33.7759 113.517C33.7759 113.517 50.8741 129.909 50.8741 142.795Z" fill="#5CD9D8"/>
<path d="M33.1532 158.208L39.4067 149.464L33.1375 159.168L33.1209 160.172C32.6833 160.163 32.25 160.142 31.8218 160.113L32.4958 147.221L32.4906 147.121L32.5021 147.102L32.5656 145.884L26.2808 136.157L32.5854 144.971L32.6 145.23L33.1094 135.489L27.7288 125.437L33.175 133.78L33.7053 113.586L33.7074 113.517V113.584L33.6188 129.508L38.9755 123.195L33.5969 130.88L33.4553 139.601L38.4567 131.231L33.4344 140.884L33.3553 145.732L40.6162 134.083L33.3282 147.424L33.1532 158.208Z" fill="#3F3D56"/>
<path d="M166.583 150.766C176.784 150.766 185.053 142.491 185.053 132.284C185.053 122.076 176.784 113.801 166.583 113.801C156.382 113.801 148.112 122.076 148.112 132.284C148.112 142.491 156.382 150.766 166.583 150.766Z" fill="#2F2E41"/>
<path d="M168.159 146.974L162.795 148.623L165.748 158.24L171.112 156.59L168.159 146.974Z" fill="#2F2E41"/>
<path d="M178.886 143.676L173.522 145.325L176.476 154.942L181.84 153.292L178.886 143.676Z" fill="#2F2E41"/>
<path d="M170.768 158.654C173.237 157.895 175.007 156.529 174.723 155.602C174.438 154.676 172.206 154.541 169.738 155.3C167.269 156.059 165.499 157.425 165.783 158.352C166.068 159.278 168.3 159.413 170.768 158.654Z" fill="#2F2E41"/>
<path d="M181.427 155.132C183.895 154.372 185.666 153.006 185.381 152.08C185.097 151.153 182.865 151.018 180.397 151.777C177.928 152.536 176.157 153.903 176.442 154.829C176.726 155.755 178.958 155.891 181.427 155.132Z" fill="#2F2E41"/>
<path d="M165.656 133.99C169.142 133.99 171.969 131.162 171.969 127.674C171.969 124.185 169.142 121.357 165.656 121.357C162.17 121.357 159.343 124.185 159.343 127.674C159.343 131.162 162.17 133.99 165.656 133.99Z" fill="white"/>
<path d="M165.656 129.779C166.818 129.779 167.76 128.836 167.76 127.673C167.76 126.511 166.818 125.568 165.656 125.568C164.494 125.568 163.552 126.511 163.552 127.673C163.552 128.836 164.494 129.779 165.656 129.779Z" fill="#3F3D56"/>
<path d="M144.41 121.121C141.022 115.17 143.597 107.313 150.16 103.572C156.724 99.8298 164.791 101.62 168.178 107.57C171.566 113.521 167.62 117.313 161.056 121.055C154.493 124.797 147.798 127.071 144.41 121.121Z" fill="#5CD9D8"/>
<path d="M133.641 140.435C133.641 152.263 126.614 156.393 117.946 156.393C117.745 156.393 117.544 156.391 117.344 156.387C116.943 156.378 116.545 156.359 116.152 156.332C108.329 155.778 102.25 151.436 102.25 140.435C102.25 129.051 116.789 114.686 117.881 113.623L117.883 113.621C117.925 113.58 117.946 113.56 117.946 113.56C117.946 113.56 133.641 128.607 133.641 140.435Z" fill="#5CD9D8"/>
<path d="M117.374 154.584L123.114 146.557L117.36 155.465L117.344 156.387C116.943 156.378 116.545 156.359 116.152 156.332L116.771 144.498L116.766 144.406L116.776 144.389L116.835 143.271L111.065 134.342L116.853 142.433L116.866 142.67L117.334 133.729L112.395 124.502L117.394 132.16L117.881 113.623L117.883 113.56V113.621L117.801 128.238L122.719 122.443L117.781 129.498L117.651 137.503L122.242 129.82L117.632 138.681L117.559 143.132L124.225 132.438L117.535 144.685L117.374 154.584Z" fill="#3F3D56"/>
<path d="M195.366 145.368C195.366 158.254 187.711 162.753 178.268 162.753C178.049 162.753 177.83 162.75 177.612 162.746C177.175 162.736 176.741 162.715 176.313 162.686C167.791 162.083 161.169 157.352 161.169 145.368C161.169 132.966 177.007 117.318 178.197 116.159L178.199 116.157C178.245 116.112 178.268 116.091 178.268 116.091C178.268 116.091 195.366 132.483 195.366 145.368Z" fill="#5CD9D8"/>
<path d="M177.644 160.782L183.898 152.038L177.629 161.742L177.612 162.746C177.175 162.736 176.741 162.715 176.313 162.686L176.987 149.794L176.982 149.694L176.993 149.676L177.057 148.458L170.772 138.73L177.077 147.545L177.091 147.803L177.601 138.063L172.22 128.011L177.666 136.353L178.196 116.159L178.199 116.091V116.157L178.11 132.082L183.467 125.769L178.088 133.453L177.946 142.174L182.948 133.805L177.926 143.458L177.846 148.306L185.107 136.657L177.819 149.998L177.644 160.782Z" fill="#3F3D56"/>
<path d="M167.755 143.348C168.441 141.9 165.262 138.954 160.653 136.766C156.045 134.579 151.753 133.98 151.067 135.428C150.38 136.875 153.56 139.822 158.169 142.009C162.777 144.196 167.069 144.796 167.755 143.348Z" fill="#2F2E41"/>
<path d="M25.5964 141.656C26.1921 140.169 22.8371 137.424 18.1027 135.525C13.3683 133.626 9.04741 133.293 8.45169 134.78C7.85597 136.267 11.211 139.012 15.9454 140.911C20.6798 142.81 25.0007 143.143 25.5964 141.656Z" fill="#2F2E41"/>
</g>
<defs>
<clipPath id="clip0">
<rect width="262" height="182" fill="white"/>
</clipPath>
</defs>
</svg>
