<svg width="148" height="140" viewBox="0 0 148 140" fill="none" xmlns="http://www.w3.org/2000/svg">
<g clip-path="url(#clip0)">
<path d="M134.363 68.5287L131.565 70.0222C131.565 70.0222 132.831 72.3701 130.401 73.718C129.94 73.9863 129.406 74.104 128.875 74.0547C128.344 74.0053 127.842 73.7914 127.438 73.4427C127.095 73.1551 126.824 72.7906 126.648 72.3788C126.472 71.967 126.396 71.5196 126.425 71.0727C126.482 70.038 127.141 68.7692 129.204 68.0952L125.846 61.7889L123.08 63.2666L125.055 66.9624C125.055 66.9624 121.71 70.038 123.995 74.3097C126.182 78.4011 130.359 77.3917 131.929 76.55C133.126 75.9108 137.053 73.4332 134.363 68.5287Z" fill="#5CD9D8"/>
<path d="M122.339 61.9982L125.146 60.4974L123.745 57.8772L120.937 59.378L122.339 61.9982Z" fill="#5CD9D8"/>
<path d="M22.8223 11.6802L25.4175 12.5757C25.4175 12.5757 26.1708 10.3987 28.4463 11.1423C28.8904 11.2743 29.282 11.5422 29.5658 11.9084C29.8497 12.2745 30.0116 12.7203 30.0288 13.1832C30.0493 13.5705 29.9777 13.9571 29.8198 14.3114C29.6619 14.6656 29.4222 14.9773 29.1205 15.221C28.4273 15.7937 27.2215 16.1196 25.5916 15.221L23.5724 21.0717L26.1359 21.9576L27.3228 18.5308C27.3228 18.5308 31.241 18.8472 32.6114 14.8793C33.9248 11.0822 30.8264 9.0286 29.3705 8.52548C28.2438 8.12679 24.3541 7.08576 22.8223 11.6802Z" fill="#5CD9D8"/>
<path d="M25.7432 23.1611L23.1377 22.261L22.2974 24.6925L24.903 25.5925L25.7432 23.1611Z" fill="#5CD9D8"/>
<path d="M9.32633 8.4622L10.8423 8.02553C10.7916 7.85309 10.776 7.67221 10.7966 7.49364C10.8171 7.31507 10.8733 7.14244 10.9619 6.98601C11.0504 6.82958 11.1695 6.69254 11.3121 6.58303C11.4547 6.47351 11.6178 6.39375 11.7918 6.34849C12.0432 6.26435 12.3147 6.26123 12.5679 6.33958C12.8212 6.41792 13.0434 6.57378 13.2034 6.78516C13.3424 6.96119 13.4376 7.16777 13.4811 7.38784C13.5246 7.60791 13.5151 7.83517 13.4534 8.05085C13.3173 8.54763 12.8647 9.09821 11.7918 9.21212L12.7793 12.6295L14.2794 12.196L13.7003 10.1962C14.2615 9.83681 14.6893 9.30323 14.918 8.67734C15.1467 8.05144 15.1636 7.36782 14.9662 6.73136C14.3332 4.5164 12.1874 4.57653 11.3361 4.83283C10.6967 5.00053 8.5256 5.79792 9.32633 8.4622Z" fill="#5CD9D8"/>
<path d="M14.4987 12.8896L12.9785 13.3291L13.3891 14.7486L14.9093 14.3091L14.4987 12.8896Z" fill="#5CD9D8"/>
<path d="M134.22 49.1668L131.799 49.1004C131.799 49.1004 131.745 51.1318 129.631 51.1097C129.223 51.1141 128.825 50.9911 128.491 50.7579C128.156 50.5248 127.903 50.1931 127.767 49.8092C127.648 49.4884 127.606 49.1439 127.646 48.804C127.686 48.4642 127.805 48.1385 127.995 47.8537C128.425 47.186 129.34 46.588 130.963 46.9297L131.115 41.4714L128.719 41.405L128.634 44.604C128.634 44.604 125.251 45.3761 125.153 49.0782C125.055 52.6158 128.207 53.5271 129.565 53.5651C130.593 53.5936 134.147 53.4385 134.22 49.1668Z" fill="#5CD9D8"/>
<path d="M128.723 40.2865L131.152 40.3535L131.215 38.0856L128.785 38.0186L128.723 40.2865Z" fill="#5CD9D8"/>
<path d="M21.5585 118.394C20.9413 116.043 21.5965 113.192 23.0777 111.265C23.1884 111.122 23.3308 110.971 23.5112 110.986C23.7834 111.012 23.8531 111.376 23.8277 111.648C23.7143 114.066 22.9225 116.404 21.5427 118.394" fill="#E0E0E0"/>
<path d="M21.7203 109.746C22.2053 108.276 22.5362 106.759 22.7078 105.221C22.8281 103.68 22.6097 102.057 21.809 100.747C20.3119 103.639 20.1632 107.018 21.676 109.901" fill="#E0E0E0"/>
<path d="M23.6576 92.7983C23.4266 90.4536 23.5753 88.6025 23.4139 86.2452C23.4139 86.0585 23.3601 85.8307 23.1829 85.7642C22.9392 85.6693 22.7335 85.9699 22.6512 86.2199C22.3102 87.3123 22.223 88.4682 22.3963 89.5994C22.5696 90.7306 22.9988 91.8074 23.6513 92.7477" fill="#E0E0E0"/>
<path d="M23.4863 93.0579C25.0187 92.0688 26.3397 90.7858 27.3729 89.283C28.1388 88.2324 28.7876 86.9762 28.6135 85.6852C28.0731 85.7002 27.5424 85.8324 27.0582 86.0728C26.574 86.3132 26.1479 86.656 25.8094 87.0775C25.1403 87.9264 24.6543 88.9047 24.382 89.9506C24.0655 90.9821 23.8535 92.0453 23.4863 93.0579Z" fill="#E0E0E0"/>
<path d="M27.3029 91.9978C30.8013 90.7025 34.0403 88.793 36.8673 86.3591C35.7247 85.9003 34.4144 86.1756 33.2751 86.6376C30.664 87.6881 28.5277 89.4664 27.2617 91.9725" fill="#E0E0E0"/>
<path d="M17.4889 79.9009C17.5807 78.4011 17.6725 76.8791 18.163 75.471C18.6536 74.0629 19.5904 72.715 20.9577 72.0948C21.1919 73.6105 20.5209 75.1166 19.717 76.4203C18.9131 77.724 17.9383 78.9517 17.4541 80.4072" fill="#E0E0E0"/>
<path d="M22.3538 96.3328C22.3063 96.3138 22.6703 95.4658 23.0406 94.39C23.4109 93.3141 23.585 92.4092 23.6324 92.4187C23.5919 93.1121 23.4446 93.7952 23.1957 94.4438C23.0392 94.9063 22.8564 95.3595 22.6481 95.8012C22.5749 95.9911 22.4759 96.17 22.3538 96.3328Z" fill="#E0E0E0"/>
<path d="M26.5717 118.02C26.2463 118.091 25.9163 118.139 25.5842 118.163C24.7889 118.245 24.0029 118.399 23.2358 118.625C22.4777 118.871 21.767 119.244 21.1343 119.729C20.6501 120.103 20.4222 120.413 20.4001 120.394C20.3779 120.375 20.438 120.305 20.5457 120.166C20.7003 119.974 20.873 119.797 21.0615 119.637C21.6888 119.117 22.4095 118.721 23.1852 118.47C23.9621 118.239 24.7627 118.098 25.5716 118.049C25.9033 118.008 26.2381 117.999 26.5717 118.02Z" fill="#E0E0E0"/>
<path d="M20.6885 120.036C20.6379 120.004 21.0841 119.324 21.4291 118.41C21.7741 117.495 21.8311 116.672 21.888 116.682C21.918 116.858 21.918 117.038 21.888 117.213C21.8389 117.645 21.7423 118.069 21.6 118.479C21.4482 118.881 21.2552 119.266 21.024 119.628C20.9346 119.781 20.8214 119.919 20.6885 120.036Z" fill="#E0E0E0"/>
<path d="M22.2197 110.698C22.2871 110.47 22.4229 110.268 22.609 110.119C23.0478 109.737 23.6091 109.523 24.1915 109.518C24.7567 109.513 25.3171 109.621 25.8404 109.835C26.0657 109.909 26.2789 110.015 26.4734 110.151C26.2475 110.107 26.0262 110.042 25.8119 109.958C25.2952 109.782 24.7532 109.691 24.2073 109.689C23.6653 109.702 23.1413 109.886 22.7103 110.214C22.5364 110.365 22.3726 110.527 22.2197 110.698Z" fill="#E0E0E0"/>
<path d="M21.1631 111.787C21.3733 111.326 21.5233 110.84 21.6093 110.341C21.6421 109.834 21.6081 109.326 21.5081 108.828C21.6032 108.953 21.6672 109.098 21.6948 109.252C21.7893 109.614 21.815 109.989 21.7708 110.36C21.7315 110.73 21.6242 111.089 21.4543 111.42C21.3023 111.67 21.1789 111.8 21.1631 111.787Z" fill="#E0E0E0"/>
<path d="M23.8433 133.449C23.8433 133.497 20.9727 133.531 17.4344 133.531C13.896 133.531 11.0254 133.497 11.0254 133.449C11.0254 133.402 13.896 133.37 17.4344 133.37C20.9727 133.37 23.8433 133.405 23.8433 133.449Z" fill="#FAFAFA"/>
<path d="M23.6478 135.015C23.6478 135.063 20.9576 135.098 17.6344 135.098C14.3113 135.098 11.6211 135.063 11.6211 135.015C11.6211 134.968 14.3113 134.933 17.6344 134.933C20.9576 134.933 23.6478 134.971 23.6478 135.015Z" fill="#FAFAFA"/>
<path d="M13.343 129.295C13.4528 130.63 13.4528 131.972 13.343 133.307C13.2333 131.972 13.2333 130.63 13.343 129.295Z" fill="#FAFAFA"/>
<path d="M18.011 129.295C18.1207 130.677 18.1207 132.067 18.011 133.449C17.9013 132.067 17.9013 130.677 18.011 129.295Z" fill="#FAFAFA"/>
<path d="M22.3938 129.26C22.5035 130.67 22.5035 132.086 22.3938 133.497C22.2841 132.086 22.2841 130.67 22.3938 129.26Z" fill="#FAFAFA"/>
<path d="M24.9797 129.295C24.9797 129.339 21.6122 129.377 17.463 129.377C13.3138 129.377 9.94629 129.339 9.94629 129.295C9.94629 129.25 13.3106 129.212 17.463 129.212C21.6154 129.212 24.9797 129.25 24.9797 129.295Z" fill="#FAFAFA"/>
<path d="M127.08 122.169H105.814V125.089H127.08V122.169Z" fill="#263238"/>
<path d="M127.112 125.127H105.78V122.131H127.112V125.127ZM105.853 125.058H127.042V122.21H105.853V125.058Z" fill="#263238"/>
<path d="M107.786 124.118L110.847 139.214H122.171L125.13 125.089L107.786 124.118Z" fill="#263238"/>
<path d="M107.786 137.787L109.419 140.031H123.183L125.13 137.787H107.786Z" fill="#455A64"/>
<path d="M115.648 124.558C115.607 124.558 115.553 117.565 115.528 108.939C115.503 100.313 115.528 93.3173 115.56 93.3173C115.591 93.3173 115.655 100.31 115.68 108.939C115.705 117.568 115.689 124.558 115.648 124.558Z" fill="#263238"/>
<path d="M120.386 107.056C120.372 107.112 120.353 107.166 120.329 107.218L120.139 107.67L120 107.987L119.858 108.385C119.807 108.528 119.753 108.68 119.693 108.841C119.633 109.002 119.592 109.176 119.538 109.36C119.284 110.213 119.085 111.082 118.943 111.961C118.781 113.04 118.675 114.127 118.627 115.217C118.548 117.2 118.604 119.187 118.794 121.162C118.861 121.922 118.93 122.536 118.981 122.96C119.003 123.159 119.022 123.32 119.035 123.447C119.039 123.504 119.039 123.561 119.035 123.618C119.014 123.565 119.001 123.51 118.997 123.453C118.975 123.324 118.946 123.165 118.915 122.966C118.845 122.545 118.76 121.935 118.677 121.175C118.455 119.195 118.384 117.201 118.465 115.211C118.519 114.114 118.633 113.022 118.807 111.939C118.958 111.055 119.17 110.183 119.44 109.328C119.5 109.145 119.548 108.971 119.611 108.809C119.674 108.648 119.731 108.493 119.785 108.354L119.94 107.961C119.991 107.841 120.044 107.733 120.092 107.645C120.177 107.465 120.25 107.328 120.307 107.202C120.364 107.075 120.38 107.053 120.386 107.056Z" fill="#263238"/>
<path d="M119.832 101.399C119.817 101.478 119.795 101.555 119.765 101.63C119.708 101.791 119.635 102.009 119.544 102.281L119.379 102.75C119.328 102.924 119.271 103.111 119.208 103.313C119.085 103.718 118.939 104.177 118.813 104.696C118.743 104.955 118.673 105.224 118.597 105.503C118.521 105.781 118.468 106.082 118.401 106.389C118.252 106.996 118.145 107.654 118.006 108.35C117.771 109.74 117.566 111.274 117.423 112.894C117.281 114.514 117.23 116.059 117.211 117.473C117.192 118.887 117.211 120.153 117.281 121.216C117.3 121.751 117.335 122.232 117.363 122.653C117.392 123.074 117.414 123.441 117.439 123.738C117.464 124.036 117.48 124.251 117.493 124.422C117.5 124.502 117.5 124.582 117.493 124.662C117.493 124.662 117.477 124.58 117.455 124.425C117.433 124.27 117.407 124.029 117.376 123.741C117.344 123.453 117.303 123.083 117.271 122.659C117.24 122.235 117.195 121.757 117.17 121.223C117.097 120.156 117.069 118.884 117.066 117.473C117.062 116.062 117.132 114.508 117.265 112.882C117.398 111.255 117.619 109.717 117.863 108.325C118.006 107.632 118.116 106.971 118.271 106.36C118.344 106.044 118.414 105.759 118.48 105.477C118.547 105.196 118.632 104.927 118.702 104.667C118.838 104.152 118.99 103.693 119.123 103.288C119.186 103.088 119.249 102.899 119.306 102.724L119.48 102.259C119.585 101.994 119.667 101.778 119.73 101.627C119.757 101.548 119.791 101.471 119.832 101.399Z" fill="#263238"/>
<path d="M114.303 125.795C114.3 125.768 114.3 125.74 114.303 125.713C114.303 125.649 114.303 125.57 114.284 125.472C114.268 125.251 114.249 124.941 114.221 124.548C114.17 123.732 114.098 122.571 114.009 121.14C113.825 118.264 113.556 114.29 113.059 109.923C112.813 107.737 112.528 105.661 112.227 103.781C112.069 102.832 111.911 101.949 111.762 101.117C111.613 100.285 111.445 99.5128 111.303 98.8072C111.16 98.1016 111.009 97.4687 110.882 96.9087C110.755 96.3486 110.641 95.8708 110.54 95.4816C110.439 95.0924 110.372 94.7981 110.319 94.5798C110.296 94.4849 110.281 94.4058 110.265 94.3456C110.262 94.3183 110.262 94.2907 110.265 94.2634C110.278 94.2882 110.288 94.3148 110.293 94.3425L110.363 94.5735L110.61 95.4658C110.717 95.855 110.847 96.3328 110.977 96.8897C111.107 97.4466 111.274 98.0794 111.42 98.7882C111.566 99.497 111.736 100.263 111.898 101.098C112.059 101.933 112.214 102.823 112.379 103.762C112.695 105.645 112.977 107.721 113.224 109.907C113.708 114.283 113.958 118.258 114.117 121.137C114.192 122.577 114.249 123.741 114.281 124.548C114.281 124.941 114.306 125.251 114.316 125.475C114.316 125.573 114.316 125.652 114.316 125.716C114.315 125.743 114.311 125.769 114.303 125.795Z" fill="#263238"/>
<path d="M115.474 96.6809C115.382 95.6904 114.382 94.9405 113.385 94.931C112.887 94.9533 112.4 95.0885 111.961 95.3264C111.523 95.5643 111.144 95.8987 110.853 96.3043C110.281 97.1218 109.868 98.0395 109.635 99.0097C108.964 101.345 108.6 103.797 108.885 106.208C109.17 108.619 110.151 110.996 111.882 112.698C112.164 112.977 112.515 113.252 112.914 113.17C113.122 113.108 113.31 112.992 113.458 112.834C115.153 111.283 116.496 109.388 117.398 107.275C118.299 105.163 118.739 102.882 118.687 100.586C118.661 99.6679 118.541 98.7123 118.031 97.9497C117.522 97.1871 116.341 96.3676 115.474 96.684" fill="#5CD9D8"/>
<path d="M108.042 88.7449L106.64 91.2763C106.609 91.3332 106.564 91.3997 106.498 91.406C106.431 91.4123 106.368 91.3427 106.327 91.2826L102.624 85.587L103.475 85.106L108.042 88.7449Z" fill="#5CD9D8"/>
<g opacity="0.2">
<path opacity="0.2" d="M108.042 88.7449L106.64 91.2763C106.609 91.3332 106.564 91.3997 106.498 91.406C106.431 91.4123 106.368 91.3427 106.327 91.2826L102.624 85.587L103.475 85.106L108.042 88.7449Z" fill="black"/>
</g>
<path d="M115.56 93.3172L102.919 85.8592C102.848 85.8302 102.783 85.7873 102.729 85.7329C102.674 85.6786 102.631 85.6139 102.602 85.5427C102.552 85.356 102.691 85.1757 102.827 85.0365C103.696 84.1347 104.749 83.4307 105.915 82.9726C107.08 82.5145 108.331 82.3129 109.581 82.3817C110.831 82.4716 112.04 82.8643 113.104 83.5258C114.169 84.1873 115.056 85.0978 115.689 86.1787C116.911 88.3589 116.955 91.2415 115.55 93.3109" fill="#5CD9D8"/>
<path d="M104.742 83.4797C104.796 83.4642 104.851 83.4568 104.907 83.4575C105.014 83.4575 105.176 83.4322 105.385 83.4354C105.972 83.4272 106.559 83.4738 107.138 83.5746C107.999 83.7202 108.839 83.9754 109.635 84.334C111.016 84.9538 112.242 85.8708 113.227 87.0195C114.212 88.1682 114.931 89.5202 115.332 90.9789C115.49 91.545 115.596 92.1244 115.648 92.7097C115.671 92.9186 115.648 92.9692 115.667 93.0799C115.655 93.1776 115.621 93.2715 115.569 93.3552C115.608 93.1464 115.614 92.9331 115.588 92.7224C115.336 90.5083 114.377 88.4342 112.854 86.8072C111.331 85.1802 109.325 84.0867 107.132 83.6885C106.559 83.5812 105.979 83.5188 105.397 83.5018C104.957 83.486 104.742 83.4923 104.742 83.4797Z" fill="#263238"/>
<path d="M113.851 88.1691C113.651 88.2898 113.439 88.3875 113.218 88.4602C112.812 88.6184 112.252 88.8209 111.635 89.0202C111.018 89.2196 110.426 89.381 110.008 89.4822C109.784 89.5527 109.553 89.5973 109.318 89.6151C109.528 89.5124 109.749 89.4339 109.977 89.381L111.588 88.8778L113.186 88.3526C113.401 88.2696 113.623 88.2081 113.851 88.1691Z" fill="#263238"/>
<path d="M111.859 82.8247C111.971 83.2853 112.021 83.7589 112.008 84.2328C112.044 84.7067 112.017 85.1834 111.929 85.6504C111.867 85.1815 111.843 84.7086 111.856 84.236C111.818 83.7663 111.819 83.2942 111.859 82.8247Z" fill="#263238"/>
<path d="M102.808 85.7168C103.104 85.5859 103.411 85.48 103.725 85.4004C104.301 85.2232 105.099 84.9985 105.992 84.7834C106.884 84.5682 107.697 84.4068 108.289 84.3024C108.606 84.2296 108.93 84.1862 109.255 84.1727C108.944 84.2721 108.627 84.3503 108.305 84.4068C107.72 84.5366 106.909 84.7232 106.02 84.9321C105.131 85.1409 104.324 85.3466 103.754 85.5048C103.444 85.5987 103.128 85.6695 102.808 85.7168Z" fill="#263238"/>
<path d="M110.227 94.5291C109.141 93.7064 107.992 93.5419 106.628 93.5988C105.263 93.6893 103.926 94.0337 102.688 94.6145C100.555 95.548 98.5511 96.9244 97.2788 98.8704C96.0065 100.816 95.5603 103.395 96.5129 105.515C96.5863 105.738 96.7412 105.924 96.9465 106.037C97.1825 106.106 97.4357 106.087 97.6586 105.984C100.083 105.193 102.526 104.401 104.754 103.158C106.982 101.914 109.014 100.196 110.211 97.9465C110.517 97.4143 110.712 96.8254 110.784 96.2156C110.817 95.9105 110.785 95.6017 110.689 95.3101C110.593 95.0186 110.435 94.7511 110.227 94.5259" fill="#5CD9D8"/>
<path d="M110.249 94.2728C110.195 94.3056 110.137 94.3302 110.075 94.3456L109.569 94.5196L109.199 94.643C109.066 94.6905 108.923 94.7506 108.771 94.8107C108.455 94.9342 108.107 95.0576 107.733 95.2411L107.138 95.51C106.933 95.605 106.727 95.722 106.505 95.8265C106.065 96.0448 105.619 96.3201 105.147 96.5985C103.115 97.8656 101.308 99.4634 99.8019 101.326C99.4633 101.759 99.1341 102.164 98.8525 102.573C98.7164 102.775 98.574 102.965 98.4537 103.158L98.1087 103.712C97.8808 104.06 97.7131 104.398 97.5485 104.686C97.4694 104.832 97.3934 104.965 97.3301 105.091C97.2668 105.218 97.213 105.335 97.1592 105.439C97.0643 105.639 96.9852 105.797 96.9219 105.92C96.8979 105.979 96.8671 106.034 96.8301 106.085C96.8457 106.025 96.8669 105.967 96.8934 105.911L97.1086 105.414L97.2637 105.06C97.3238 104.93 97.3998 104.794 97.4757 104.648C97.6308 104.354 97.7922 104.015 98.0169 103.658L98.3556 103.095C98.4727 102.899 98.6151 102.706 98.7512 102.503C99.017 102.088 99.3462 101.677 99.6817 101.237C101.188 99.3565 103.008 97.7506 105.062 96.491C105.54 96.2157 105.989 95.9404 106.432 95.7284C106.654 95.6176 106.863 95.5037 107.065 95.412L107.667 95.1493C108.047 94.9721 108.407 94.855 108.718 94.738C108.876 94.681 109.018 94.6241 109.154 94.5798L109.528 94.469L110.044 94.3235C110.11 94.2995 110.179 94.2826 110.249 94.2728Z" fill="#263238"/>
<path d="M101.755 98.8736C100.89 99.204 100.007 99.4881 99.1121 99.7248C98.229 100.009 97.3309 100.245 96.4219 100.43C97.2884 100.101 98.1716 99.8168 99.0678 99.5792C99.9498 99.2948 100.847 99.0592 101.755 98.8736Z" fill="#263238"/>
<path d="M101.646 104.709C101.599 104.436 101.58 104.159 101.589 103.883C101.573 103.373 101.57 102.671 101.589 101.892C101.608 101.114 101.653 100.412 101.697 99.9052C101.703 99.6291 101.738 99.3545 101.801 99.0857C101.823 99.3605 101.823 99.6367 101.801 99.9116C101.785 100.468 101.763 101.149 101.741 101.899C101.719 102.649 101.706 103.326 101.691 103.883C101.7 104.159 101.685 104.435 101.646 104.709Z" fill="#263238"/>
<path d="M106.647 102.161C106.602 102.161 106.469 100.734 106.349 98.9654C106.229 97.1966 106.162 95.7632 106.204 95.76C106.245 95.7569 106.378 97.1871 106.501 98.9559C106.625 100.725 106.688 102.158 106.647 102.161Z" fill="#263238"/>
<path d="M100.422 95.6303C100.703 95.5961 100.987 95.5876 101.27 95.6049C101.792 95.6049 102.514 95.6239 103.311 95.6492C104.109 95.6745 104.831 95.7094 105.35 95.741C105.633 95.7426 105.916 95.769 106.195 95.8201C105.915 95.8565 105.631 95.865 105.35 95.8454C104.827 95.8454 104.103 95.8264 103.305 95.8011C102.508 95.7758 101.786 95.7442 101.267 95.7125C100.983 95.7111 100.7 95.6836 100.422 95.6303Z" fill="#263238"/>
<path d="M112.423 113.034C112.41 112.978 112.404 112.922 112.404 112.866C112.404 112.736 112.404 112.578 112.382 112.379C112.363 111.958 112.36 111.344 112.382 110.588C112.404 109.831 112.448 108.933 112.537 107.936C112.625 106.939 112.78 105.851 112.983 104.715C113.186 103.579 113.445 102.5 113.701 101.551C113.958 100.601 114.236 99.7248 114.493 99.0191C114.749 98.3135 114.961 97.7313 115.126 97.3421L115.319 96.8928C115.338 96.8394 115.364 96.7884 115.395 96.7409C115.385 96.7974 115.369 96.8526 115.347 96.9054C115.303 97.0225 115.249 97.1744 115.183 97.3611C115.031 97.7566 114.828 98.3357 114.591 99.0508C114.353 99.7659 114.091 100.633 113.834 101.582C113.578 102.531 113.337 103.617 113.129 104.746C112.92 105.876 112.78 106.961 112.673 107.958C112.565 108.955 112.515 109.857 112.486 110.597C112.458 111.337 112.445 111.961 112.445 112.385C112.445 112.581 112.445 112.742 112.445 112.869C112.445 112.925 112.437 112.98 112.423 113.034Z" fill="#263238"/>
<path d="M113.091 104.756C112.941 104.957 112.772 105.143 112.584 105.31C112.268 105.626 111.793 106.072 111.264 106.537C110.736 107.003 110.239 107.404 109.872 107.686C109.684 107.851 109.478 107.994 109.258 108.113C109.424 107.926 109.607 107.756 109.805 107.604L111.163 106.423L112.511 105.231C112.688 105.054 112.882 104.895 113.091 104.756Z" fill="#263238"/>
<path d="M117.091 107.971C116.892 107.738 116.712 107.489 116.553 107.227L115.306 105.405C114.822 104.718 114.382 104.101 114.04 103.601C113.851 103.36 113.679 103.105 113.527 102.838C113.747 103.052 113.947 103.285 114.126 103.535C114.477 103.981 114.945 104.607 115.439 105.319C115.933 106.031 116.357 106.686 116.654 107.17C116.823 107.424 116.969 107.692 117.091 107.971Z" fill="#263238"/>
<path d="M114.996 97.8452C115.018 97.88 113.688 98.7755 112.027 99.845C110.365 100.915 108.998 101.744 108.976 101.715C108.954 101.687 110.283 100.785 111.945 99.7153C113.606 98.6458 114.973 97.8073 114.996 97.8452Z" fill="#263238"/>
<path d="M118.743 101.886C118.038 101.306 117.367 100.685 116.733 100.029C116.063 99.41 115.429 98.754 114.834 98.0636C115.538 98.6451 116.209 99.2652 116.844 99.921C117.512 100.541 118.145 101.197 118.743 101.886Z" fill="#263238"/>
<path d="M119.687 101.807L120.826 101.712C121.637 101.646 122.424 101.405 123.133 101.006C123.478 100.803 123.837 100.624 124.206 100.468C125.618 99.9021 127.191 100.003 128.71 99.9274C131.195 99.799 133.63 99.1761 135.872 98.0953C136.004 98.0354 136.115 97.9359 136.188 97.8105C136.423 97.3833 135.986 97.0036 135.612 96.7726C133.691 95.5892 131.732 94.39 129.552 93.8014C127.371 93.2129 124.899 93.3141 123.038 94.5925C120.854 96.0955 120.06 99.1806 119.69 101.807" fill="#5CD9D8"/>
<path d="M136.21 97.6712C136.143 97.6478 136.079 97.6181 136.017 97.5826L135.476 97.2978C135.008 97.051 134.33 96.6871 133.479 96.2789C132.485 95.7915 131.451 95.3924 130.387 95.086C129.084 94.716 127.721 94.6084 126.377 94.7696C125.031 94.919 123.76 95.464 122.725 96.3359C121.918 97.0897 121.272 97.9993 120.826 99.0097C120.515 99.6884 120.238 100.382 119.997 101.089C119.914 101.329 119.845 101.519 119.794 101.664C119.773 101.732 119.746 101.797 119.715 101.861C119.724 101.79 119.741 101.722 119.765 101.655C119.81 101.506 119.87 101.313 119.943 101.07C120.162 100.352 120.424 99.6483 120.728 98.9622C121.165 97.9307 121.812 97.0009 122.627 96.2315C123.68 95.3342 124.977 94.7722 126.352 94.6177C127.715 94.456 129.098 94.5723 130.415 94.9595C131.486 95.2723 132.525 95.6833 133.52 96.1872C134.368 96.6112 135.036 96.9909 135.498 97.2535L136.027 97.5699C136.09 97.599 136.152 97.6329 136.21 97.6712Z" fill="#263238"/>
<path d="M133.47 99.1426C133.448 99.1774 131.954 98.2123 130.137 96.9878C128.321 95.7632 126.865 94.7412 126.887 94.7064C126.909 94.6716 128.403 95.6366 130.223 96.8612C132.043 98.0858 133.492 99.111 133.47 99.1426Z" fill="#263238"/>
<path d="M131.878 94.6272C131.528 94.7481 131.162 94.8143 130.792 94.8234C130.424 94.8748 130.051 94.8695 129.685 94.8076C130.046 94.7437 130.412 94.7067 130.78 94.6968C131.144 94.647 131.511 94.6238 131.878 94.6272Z" fill="#263238"/>
<path d="M125.345 93.7761C125.223 94.0553 125.057 94.3137 124.855 94.5419C124.68 94.8066 124.467 95.0434 124.222 95.2443C124.345 94.9663 124.51 94.7091 124.712 94.4817C124.888 94.2173 125.101 93.9796 125.345 93.7761Z" fill="#263238"/>
<path d="M126.681 100.022C126.429 99.9168 126.188 99.7864 125.963 99.633C125.532 99.3704 124.95 99.0001 124.326 98.535C123.703 98.0699 123.155 97.6554 122.763 97.3453C122.536 97.1883 122.324 97.0103 122.13 96.8137C122.373 96.9383 122.602 97.0878 122.814 97.2598L124.396 98.4148C125.029 98.8641 125.586 99.2596 126.001 99.5444C126.242 99.6825 126.469 99.8424 126.681 100.022Z" fill="#263238"/>
<path d="M121.367 106.654C120.278 106.367 118.981 107.423 118.756 108.528C118.531 109.632 118.946 110.758 119.43 111.774C120.471 114.053 122.015 116.067 123.947 117.663C125.89 119.259 128.316 120.151 130.83 120.194C130.368 118.058 130.951 115.824 130.694 113.654C130.469 111.741 129.6 109.962 128.231 108.607C126.862 107.252 125.074 106.402 123.159 106.196C122.462 106.12 121.658 106.012 121.383 106.654" fill="#5CD9D8"/>
<path d="M130.814 120.194C130.759 120.179 130.707 120.154 130.659 120.121C130.516 120.043 130.379 119.952 130.251 119.849C129.794 119.453 129.427 118.963 129.175 118.413C129.004 118.074 128.808 117.71 128.618 117.305L128.033 116.011C127.823 115.535 127.583 115.073 127.314 114.628C127.02 114.153 126.689 113.703 126.323 113.28C125.58 112.407 124.779 111.648 124.086 110.926C123.46 110.294 122.889 109.609 122.38 108.879C122.04 108.387 121.76 107.856 121.548 107.297C121.49 107.144 121.442 106.987 121.402 106.829C121.383 106.776 121.371 106.72 121.367 106.664C121.367 106.664 121.443 106.886 121.601 107.275C121.833 107.823 122.124 108.343 122.469 108.828C122.986 109.544 123.561 110.216 124.187 110.838C124.883 111.553 125.687 112.309 126.441 113.192C126.808 113.621 127.143 114.078 127.441 114.559C127.712 115.011 127.953 115.48 128.162 115.964C128.362 116.419 128.555 116.853 128.732 117.261C128.909 117.669 129.105 118.033 129.27 118.372C129.507 118.912 129.849 119.399 130.276 119.805C130.593 120.077 130.821 120.182 130.814 120.194Z" fill="#263238"/>
<path d="M125.184 118.413C125.191 118.165 125.224 117.919 125.285 117.679C125.37 117.232 125.51 116.615 125.696 115.948C125.883 115.28 126.089 114.682 126.25 114.252C126.323 114.016 126.423 113.788 126.548 113.575C126.504 113.817 126.439 114.056 126.351 114.287C126.215 114.72 126.035 115.321 125.845 115.989C125.655 116.657 125.5 117.255 125.389 117.704C125.342 117.946 125.273 118.183 125.184 118.413Z" fill="#263238"/>
<path d="M130.593 113.173C130.334 113.138 130.077 113.079 129.828 112.999C129.359 112.875 128.71 112.708 127.992 112.546C127.273 112.385 126.612 112.258 126.137 112.167C125.877 112.132 125.619 112.076 125.368 111.999C125.631 111.99 125.895 112.012 126.153 112.062C126.637 112.125 127.299 112.236 128.024 112.398C128.748 112.559 129.394 112.746 129.859 112.894C130.113 112.96 130.36 113.054 130.593 113.173Z" fill="#263238"/>
<path d="M121.146 114.698C121.158 114.412 121.197 114.128 121.263 113.85C121.361 113.331 121.513 112.616 121.715 111.837C121.918 111.059 122.136 110.36 122.307 109.86C122.386 109.584 122.492 109.317 122.624 109.062C122.577 109.344 122.507 109.621 122.415 109.891C122.269 110.398 122.07 111.097 121.867 111.875C121.665 112.654 121.497 113.359 121.373 113.872C121.321 114.153 121.245 114.43 121.146 114.698Z" fill="#263238"/>
<path d="M128.108 108.604C128.108 108.645 126.747 108.534 125.076 108.357C123.405 108.18 122.047 108.002 122.047 107.971C122.047 107.939 123.408 108.04 125.082 108.218C126.756 108.395 128.114 108.562 128.108 108.604Z" fill="#263238"/>
<path d="M127.111 125.077C127.111 125.118 122.335 125.153 116.445 125.153C110.555 125.153 105.776 125.118 105.776 125.077C105.776 125.035 110.552 125.001 116.445 125.001C122.338 125.001 127.111 125.035 127.111 125.077Z" fill="#455A64"/>
<path d="M123.791 131.221C123.791 131.263 120.572 131.297 116.604 131.297C112.635 131.297 109.416 131.263 109.416 131.221C109.416 131.18 112.635 131.146 116.604 131.146C120.572 131.146 123.791 131.18 123.791 131.221Z" fill="#455A64"/>
<path d="M123.665 132.101C123.665 132.142 120.5 132.177 116.604 132.177C112.708 132.177 109.543 132.142 109.543 132.101C109.543 132.06 112.708 132.025 116.604 132.025C120.5 132.025 123.665 132.06 123.665 132.101Z" fill="#455A64"/>
<path d="M123.918 130.497C123.918 130.541 120.588 130.573 116.483 130.573C112.378 130.573 109.049 130.541 109.049 130.497C109.049 130.453 112.375 130.421 116.483 130.421C120.591 130.421 123.918 130.456 123.918 130.497Z" fill="#455A64"/>
<path d="M100.995 34.7124C100.023 30.0135 95.2347 14.743 74.5836 15.6131C64.3261 16.0435 58.6609 20.8974 55.7112 24.8938C53.7916 27.4745 52.4323 30.4276 51.7202 33.5638L51.698 33.6935H40.2568V33.5353C40.2568 33.4879 40.2568 28.8523 40.7569 26.5266L41.0734 26.5899C40.6398 28.6434 40.586 32.5449 40.5797 33.3771H51.4417C52.1794 30.2485 53.5447 27.3022 55.4548 24.7166C58.433 20.6601 64.1805 15.7334 74.5741 15.2967C83.0403 14.9423 89.8164 17.2522 94.703 22.1663C99.1181 26.5962 100.735 31.8931 101.305 34.6491L100.995 34.7124Z" fill="#5CD9D8"/>
<path d="M82.0085 108.028H64.8831V59.2639L65.0698 59.2987C81.2457 62.1465 88.2655 54.9827 91.0222 50.4578C94.2631 45.1135 94.8201 38.6648 92.5414 33.2096C91.114 29.8429 86.6673 22.0367 75.84 22.2203C70.542 22.312 63.4241 23.9827 59.585 31.4218C58.1782 34.2199 57.3841 37.2856 57.2556 40.4146V40.5728H35.7721V40.4177C35.7531 38.6078 35.7721 32.4692 35.7721 32.4091V32.2319L38.4212 32.5103V36.4593L53.9293 36.4371C54.5983 33.1947 55.888 30.1121 57.7272 27.359C60.5218 23.2138 65.8864 18.2966 75.5236 18.2966H75.84C82.8978 18.3726 88.7213 20.8533 92.6838 25.4731C96.9533 30.4504 98.2445 37.0225 97.6274 41.3322C97.6274 41.4145 97.2223 51.3312 89.7689 57.9349C84.5689 62.5452 77.2484 64.4849 68.0069 63.7001V78.8599H71.1971V66.7504L71.368 66.7663C74.2578 66.9191 77.1553 66.7 79.9893 66.1144C84.3379 65.2221 90.3386 63.0293 94.2314 57.6406C101.21 47.9518 101.286 42.4745 101.34 38.4749C101.34 38.1585 101.34 37.8421 101.34 37.5256L101.305 36.7283H106.052V36.8706C106.052 36.9719 106.812 46.8506 98.5769 57.9349C93.4529 64.8298 87.449 69.2723 81.673 70.4368L81.6129 70.1203C87.3097 68.9717 93.244 64.5735 98.3237 57.7387C105.942 47.4866 105.802 38.2914 105.745 37.0384H101.631L101.65 37.5161C101.65 37.8326 101.65 38.149 101.65 38.4654C101.593 42.5061 101.517 48.0435 94.4846 57.8115C90.5411 63.2856 84.4581 65.5101 80.0494 66.415C77.2397 66.9908 74.3691 67.214 71.5041 67.0795V79.1764H67.6935V63.3552L67.8644 63.3711C77.0934 64.1843 84.3948 62.2762 89.56 57.7008C96.9121 51.1888 97.3141 41.405 97.3172 41.3069C97.9249 37.051 96.6526 30.5802 92.4496 25.6788C88.5472 21.1349 82.8029 18.6922 75.84 18.6162C66.1364 18.5118 60.7782 23.4069 57.9867 27.5298C56.1334 30.2823 54.8427 33.374 54.1888 36.627L54.1667 36.7599L38.0857 36.782V32.792L36.0696 32.58C36.0696 33.5704 36.0696 38.4686 36.0696 40.2532H56.9328C57.0863 37.132 57.8882 34.077 59.2875 31.2826C61.4618 27.0963 66.0826 22.0684 75.84 21.9039H76.2262C86.9521 21.9039 91.3988 29.7068 92.8199 33.0926C95.1493 38.6426 94.5732 45.1989 91.2785 50.6287C88.9302 54.4986 83.5087 60.2701 72.077 60.2733C69.7706 60.2592 67.4697 60.0474 65.1996 59.6404V107.711H82.0085V108.028Z" fill="#5CD9D8"/>
<path d="M86.4391 107.869H86.1226V79.3914L86.2397 79.3598C86.3157 79.3408 93.7501 77.3695 101.083 71.4302C107.847 65.9498 115.908 55.8781 115.908 38.9906C115.908 25.723 110.527 15.069 100.4 8.17101C92.0157 2.4754 81.9386 0.453456 75.8588 0.453456C66.8862 0.453456 45.2508 2.73803 38.1329 23.8846C37.5619 25.8156 37.1272 27.7844 36.8321 29.7764L36.5156 29.7321C36.8111 27.7274 37.2468 25.746 37.8196 23.8023C45.0039 2.44692 66.8071 0.140198 75.8398 0.140198C81.9639 0.140198 92.1138 2.17796 100.561 7.91154C110.803 14.8728 116.218 25.6312 116.218 38.9937C116.218 56.0078 108.087 66.1618 101.267 71.6802C96.8698 75.2443 91.836 77.9416 86.4328 79.6288L86.4391 107.869Z" fill="#5CD9D8"/>
<path d="M84.0842 89.5582H83.7677L83.7899 76.8285L83.9228 76.8064C83.9576 76.8064 87.5118 76.2305 92.1199 73.7434C96.3736 71.4462 102.419 67.0036 107.074 58.8715C113.721 47.262 112.508 38.3262 112.496 38.2376C111.711 26.7768 107.201 17.8568 99.0954 11.7087C90.6293 5.28532 80.8718 3.92154 75.8111 3.67789C71.8549 3.48804 64.9681 4.15253 58.5876 6.65543C49.9378 10.0475 44.1967 15.7937 41.5255 23.7423L41.209 23.641C43.9118 15.607 49.7163 9.79751 58.4547 6.37065C64.8826 3.83927 71.8233 3.18111 75.8111 3.37096C80.9066 3.61461 90.7369 4.99421 99.2727 11.4682C107.454 17.6733 112.002 26.6723 112.793 38.2123C112.793 38.2914 114.031 47.3284 107.331 59.0361C102.637 67.2472 96.535 71.7278 92.2434 74.044C88.0941 76.2843 84.7836 76.9836 84.0905 77.1133L84.0842 89.5582Z" fill="#5CD9D8"/>
<path d="M84.0592 105.151H71.3584V104.835H83.7427L83.7586 94.9974H84.0751L84.0592 105.151Z" fill="#5CD9D8"/>
<path d="M71.3584 105.152H67.9561V82.7867H71.5166V102.339H71.2001V83.1032H68.2725V104.835H71.3584V105.152Z" fill="#5CD9D8"/>
<path d="M49.3847 29.9157H43.71V29.7511C43.8935 23.7929 46.3495 19.8882 48.3782 17.6638C49.5767 16.321 50.9961 15.1931 52.5749 14.3287L49.5714 11.7277L49.7771 11.4904L53.1604 14.4046L52.9357 14.5059C52.8534 14.547 44.4632 18.5181 44.0454 29.5992H49.2549C49.5049 28.4918 51.5052 20.4957 56.9393 18.3915L55.167 16.5246C54.5055 16.7272 50.0746 18.3631 47.6155 26.5268L47.299 26.435C50.0208 17.4739 54.9739 16.2525 55.1828 16.2082L55.2714 16.1892L57.509 18.5276L57.278 18.6099C51.4704 20.6381 49.5714 29.6973 49.5397 29.7891L49.5144 29.9157H49.3847Z" fill="#5CD9D8"/>
<path d="M58.9242 16.5784L51.8633 10.0158L52.0785 9.78163L58.9211 16.1449C59.813 15.3943 60.7941 14.7567 61.8423 14.2464C64.7615 12.8337 67.9313 12.0121 71.1693 11.8289C79.7146 11.2277 85.7944 12.8414 88.4941 14.4394L90.8393 10.5126C89.029 9.71834 72.3024 2.7697 58.6394 10.6803L58.4811 10.405C73.0176 1.9913 90.9533 10.212 91.1337 10.2974L91.2919 10.3702L88.6017 14.8919L88.4656 14.8064C85.8799 13.2053 79.8064 11.5536 71.1915 12.1611C62.988 12.7275 59.0666 16.436 59.0318 16.474L58.9242 16.5784Z" fill="#5CD9D8"/>
<path d="M80.9415 100.949H80.625L81.1061 73.9871H81.2612C90.3382 73.9206 103.02 60.9568 106.65 50.7869C111.714 36.5954 107.6 26.6565 103.251 20.8185C100.39 17.009 96.7677 13.8365 92.6137 11.503L90.3097 15.683C91.8636 16.3411 103.631 21.7551 103.729 34.4595L108.723 34.4975V34.8139L103.416 34.7728V34.6146C103.416 21.1887 90.1641 15.9614 90.0312 15.9077L89.8602 15.8444L92.4871 11.098L92.6137 11.1455C96.8686 13.4939 100.576 16.7186 103.492 20.6065C107.888 26.5078 112.056 36.5511 106.941 50.8819C104.897 56.6091 100.659 62.5895 95.3102 67.2441C90.3603 71.5696 85.1825 74.1896 81.4131 74.2876L80.9415 100.949Z" fill="#5CD9D8"/>
<path d="M78.286 101.104H73.9658L73.969 100.943L74.4722 73.0978L74.4596 71.2435H78.3587V97.5921H78.0422V71.56H74.7761L74.7887 73.1009L74.2886 100.788H78.286V101.104Z" fill="#5CD9D8"/>
<path d="M105.818 67.1522C105.549 66.8358 103.808 65.067 103.375 64.6208L103.33 64.5733L103.283 64.529C103.259 64.5119 103.242 64.4871 103.235 64.4589C103.227 64.4306 103.23 64.4006 103.242 64.374L103.362 64.2632C103.397 64.2632 103.419 64.2632 103.495 64.317L103.584 64.4088C103.748 64.5607 104.049 64.8676 104.65 65.4783C105.448 66.2884 105.916 66.782 106.055 66.9497L105.818 67.1522Z" fill="#5CD9D8"/>
<path d="M95.7742 5.49241L93.8281 7.95959L94.0766 8.15553L96.0227 5.68835L95.7742 5.49241Z" fill="#5CD9D8"/>
<path d="M94.747 39.1488C94.4938 39.1488 94.2501 39.1488 94.0381 39.1488V38.8323C94.5413 38.8513 95.1901 38.8323 95.8199 38.8323C96.4498 38.8323 97.1081 38.8165 97.6176 38.8323V39.1488C97.1144 39.133 96.4624 39.1488 95.8326 39.1488H94.747Z" fill="#5CD9D8"/>
<path d="M45.7384 36.6523H45.4219V40.2722H45.7384V36.6523Z" fill="#5CD9D8"/>
<path d="M75.046 18.6985H74.7295V21.8121H75.046V18.6985Z" fill="#5CD9D8"/>
<path d="M103.455 57.5278L103.328 57.8176L106.955 59.4049L107.082 59.115L103.455 57.5278Z" fill="#5CD9D8"/>
<path d="M88.4761 63.0448L88.2246 63.2369L90.5342 66.2592L90.7857 66.0671L88.4761 63.0448Z" fill="#5CD9D8"/>
<path d="M114.499 27.0617L110.785 28.0936L110.87 28.3985L114.584 27.3666L114.499 27.0617Z" fill="#5CD9D8"/>
<path d="M86.6958 132.706H64.8262V116.071H65.1427V132.389H86.3793V112.578H64.9844V112.261H86.6958V132.706Z" fill="#5CD9D8"/>
<path d="M84.0752 129.26H67.9562V119.46H80.9419V125.308H71.3585V122.488H77.6377V122.805H71.675V124.991H80.6254V119.776H68.2727V128.943H83.7587V116.35H64.9844V116.033H84.0752V129.26Z" fill="#5CD9D8"/>
<path d="M72.0167 129.101H71.7002V132.544H72.0167V129.101Z" fill="#5CD9D8"/>
<path d="M86.5376 121.52H83.917V121.836H86.5376V121.52Z" fill="#5CD9D8"/>
<path d="M74.2862 119.618H73.9697V122.485H74.2862V119.618Z" fill="#5CD9D8"/>
<path d="M68.1145 124.304H64.9844V124.621H68.1145V124.304Z" fill="#5CD9D8"/>
<path d="M49.4475 34.5796L48.3398 34.8549L47.8809 35.2631L48.4917 35.4181L49.8368 35.0321L49.4475 34.5796Z" fill="#455A64"/>
<path d="M53.463 35.0954L51.7856 33.0513H50.0765L48.9941 34.317C49.0011 34.3886 49.0238 34.4578 49.0606 34.5195C48.8622 34.4634 48.6497 34.4873 48.4688 34.586L49.453 37.1933L51.3267 39.0697L53.6972 38.4084L53.463 35.0954ZM50.8804 36.0447L50.0037 35.6302C49.874 35.2611 49.6568 34.9289 49.3707 34.6619C49.4002 34.665 49.4299 34.665 49.4594 34.6619C49.5757 34.6427 49.688 34.6042 49.7917 34.548C50.5418 34.1746 50.7412 34.0924 50.7412 34.0924L51.2191 34.9657L50.8804 36.0447Z" fill="#FFBE9D"/>
<path d="M52.1597 34.469C51.9316 34.2939 51.7366 34.0796 51.5837 33.8361C51.3907 33.6194 51.2404 33.3682 51.1406 33.0957C51.1754 33.0672 51.435 33.3552 51.7166 33.7285C51.9111 33.9442 52.0616 34.1957 52.1597 34.469Z" fill="#EB996E"/>
<path d="M50.8805 36.0509C50.5539 36.0005 50.2348 35.909 49.931 35.7788H49.8962V35.7377C49.8452 35.5623 49.7763 35.3926 49.6905 35.2314C49.6166 35.0745 49.5122 34.9338 49.3834 34.8176C49.2546 34.7014 49.1041 34.6118 48.9404 34.5542C48.7953 34.5402 48.6489 34.5498 48.5068 34.5827C48.5068 34.5827 48.5322 34.5384 48.6081 34.5004C48.7158 34.4467 48.8365 34.4247 48.9563 34.4372C49.1471 34.4829 49.3253 34.5709 49.4776 34.6946C49.6298 34.8184 49.7524 34.9748 49.8361 35.1523C49.9293 35.3249 49.9995 35.5089 50.045 35.6997L49.9975 35.6459C50.3063 35.7469 50.6025 35.8828 50.8805 36.0509Z" fill="#EB996E"/>
<path d="M49.7162 35.0637L53.6218 34.029C53.6583 34.0192 53.6924 34.0022 53.7222 33.9789C53.752 33.9556 53.7768 33.9265 53.7951 33.8935C53.8134 33.8604 53.8249 33.824 53.8288 33.7864C53.8327 33.7488 53.8291 33.7108 53.818 33.6746C53.7975 33.6098 53.754 33.5548 53.6957 33.5198C53.6374 33.4848 53.5683 33.4724 53.5015 33.4848L49.3428 34.6113C49.4908 34.741 49.617 34.8938 49.7162 35.0637Z" fill="#455A64"/>
<path d="M19.8207 83.9384L22.1881 82.6569L22.2767 83.5366L21.0867 88.0108C20.7041 87.3799 20.3961 86.7066 20.1689 86.0047C20.1689 86.0047 19.7891 84.3403 19.7891 84.2201C19.7904 84.125 19.8032 84.0304 19.827 83.9384" fill="#FFBE9D"/>
<path d="M39.2021 130.5L39.6041 140.024L44.7471 139.91L44.3641 130.367L39.2021 130.5Z" fill="#455A64"/>
<path d="M42.1301 139.613C42.1744 139.613 42.0952 137.525 41.9528 134.955C41.8104 132.386 41.6617 130.304 41.6205 130.307C41.5794 130.31 41.6553 132.392 41.7977 134.965C41.9402 137.537 42.0889 139.613 42.1301 139.613Z" fill="#263238"/>
<path d="M39.5791 139.369L44.7221 139.236L44.7474 139.91L39.6044 140.024L39.5791 139.369Z" fill="#263238"/>
<path d="M44.6271 136.86C44.5909 136.785 44.5428 136.717 44.4847 136.658C44.12 136.232 43.6633 135.894 43.1491 135.67C42.7668 135.506 42.3525 135.43 41.9369 135.449C41.5609 135.465 41.1923 135.56 40.8546 135.726C40.5168 135.892 40.2172 136.126 39.9746 136.414C39.8306 136.588 39.7123 136.782 39.6233 136.99C39.5843 137.063 39.5606 137.144 39.5537 137.227C39.6994 136.966 39.8678 136.718 40.0569 136.487C40.5484 135.954 41.2314 135.637 41.9559 135.607C42.6767 135.596 43.3795 135.833 43.9466 136.278C44.3834 136.607 44.6049 136.879 44.6271 136.86Z" fill="#263238"/>
<g opacity="0.3">
<path opacity="0.3" d="M39.3262 134.348L39.4021 135.196H44.5578L44.5261 134.348H39.3262Z" fill="black"/>
</g>
<path d="M21.8626 131.168L21.679 136.879C21.679 136.879 15.9315 139.053 15.8936 140.129L27.1227 139.986L27.3854 131.07L21.8626 131.168Z" fill="#455A64"/>
<path d="M25.0743 136.332C25.1841 136.363 25.2786 136.433 25.3399 136.529C25.4012 136.626 25.4249 136.741 25.4066 136.854C25.3794 136.965 25.3108 137.061 25.2148 137.123C25.1189 137.184 25.0029 137.207 24.8907 137.186C24.7743 137.153 24.6742 137.079 24.6099 136.976C24.5456 136.874 24.5216 136.751 24.5426 136.632C24.5829 136.52 24.6648 136.427 24.7715 136.374C24.8781 136.32 25.0012 136.31 25.1154 136.344" fill="#E0E0E0"/>
<path d="M27.1221 139.986V139.265L16.2126 139.613C16.1143 139.677 16.0302 139.76 15.9654 139.857C15.9007 139.955 15.8566 140.064 15.8359 140.179L27.1221 139.986Z" fill="#263238"/>
<path d="M21.5775 136.917C21.5775 136.974 21.8592 136.993 22.1345 137.164C22.4099 137.335 22.5618 137.563 22.6124 137.54C22.6631 137.518 22.5713 137.199 22.2326 136.999C21.894 136.8 21.5648 136.866 21.5775 136.917Z" fill="#263238"/>
<path d="M20.3994 137.436C20.3994 137.49 20.6305 137.578 20.8235 137.809C21.0166 138.04 21.0767 138.284 21.14 138.281C21.2033 138.278 21.2255 137.964 20.9786 137.683C20.7317 137.401 20.3994 137.398 20.3994 137.436Z" fill="#263238"/>
<path d="M19.7571 138.876C19.8077 138.876 19.8773 138.607 19.7286 138.309C19.5798 138.012 19.3171 137.895 19.295 137.939C19.2728 137.983 19.4374 138.145 19.5577 138.395C19.6779 138.645 19.7033 138.873 19.7571 138.876Z" fill="#263238"/>
<path d="M21.6467 135.579C21.6689 135.629 21.9221 135.547 22.2354 135.56C22.5487 135.572 22.7956 135.667 22.8241 135.62C22.8526 135.572 22.612 135.379 22.2417 135.37C21.8714 135.36 21.6182 135.537 21.6467 135.579Z" fill="#263238"/>
<path d="M21.4033 134.335C21.59 134.382 21.786 134.377 21.9698 134.319C22.1734 134.278 22.3712 134.213 22.5585 134.123C22.6679 134.07 22.7736 134.01 22.875 133.943C22.9386 133.906 22.9953 133.859 23.0427 133.804C23.0781 133.764 23.0992 133.713 23.1027 133.66C23.1061 133.606 23.0917 133.553 23.0617 133.509C23.0326 133.472 22.9956 133.442 22.9535 133.422C22.9113 133.401 22.865 133.39 22.818 133.389C22.7451 133.391 22.6727 133.403 22.6028 133.424C22.483 133.456 22.3664 133.499 22.2547 133.554C22.0643 133.642 21.89 133.762 21.7388 133.908C21.4824 134.158 21.397 134.367 21.4223 134.376C21.4476 134.386 21.5711 134.218 21.8337 134.012C21.9868 133.892 22.1549 133.792 22.3338 133.715C22.4356 133.669 22.5416 133.633 22.6503 133.607C22.7706 133.573 22.8718 133.569 22.9035 133.607C22.9351 133.645 22.9035 133.636 22.9035 133.674C22.8666 133.712 22.8251 133.744 22.7801 133.772C22.6845 133.838 22.5851 133.898 22.4826 133.952C22.3087 134.044 22.1264 134.118 21.9382 134.174C21.7564 134.215 21.5777 134.269 21.4033 134.335Z" fill="#263238"/>
<g opacity="0.3">
<path opacity="0.3" d="M27.2863 134.417L27.2483 135.734L21.7129 135.819L21.7635 134.626L27.2863 134.417Z" fill="black"/>
</g>
<path d="M24.9571 39.1963L27.6789 50.7141L34.1544 49.8534L33.6796 46.1798C33.6796 46.1798 36.0407 46.2177 36.2464 43.9964C36.3128 43.256 35.7368 39.9842 35.1703 37.0162C35.0406 36.3375 34.7774 35.6914 34.396 35.1152C34.0146 34.539 33.5226 34.0442 32.9485 33.6595C32.3745 33.2748 31.7297 33.0079 31.0517 32.8742C30.3737 32.7404 29.6759 32.7426 28.9987 32.8805C28.3133 33.0199 27.6628 33.2955 27.0859 33.6911C26.5091 34.0866 26.0176 34.594 25.6406 35.183C25.2637 35.7721 25.0089 36.4309 24.8915 37.1203C24.7741 37.8097 24.7964 38.5157 24.9571 39.1963Z" fill="#FFBE9D"/>
<path d="M30.9323 32.4691C31.4894 32.6716 31.3469 32.9469 31.464 33.1969C31.5811 33.4468 32.0685 33.4279 32.5496 33.6177C33.0307 33.8076 34.1321 34.6904 34.4264 35.241C34.7207 35.7915 34.5435 35.858 34.4897 36.1681C34.4359 36.4782 34.879 38.0318 34.9423 38.3071C35.0626 38.8292 35.2936 40.367 35.2936 40.367L34.8284 40.6107C34.8284 40.6107 34.5847 38.9273 34.0371 38.9368C33.4896 38.9463 33.3535 39.519 33.3282 39.674C33.1655 39.9108 33.0455 40.1743 32.9737 40.4524C32.8534 41.1865 32.9072 42.2592 32.8534 42.9332C32.768 43.9742 31.6255 45.5152 31.6255 45.5152L26.5616 45.9835C26.5616 45.9835 24.267 40.7942 24.1182 39.4399C23.9695 38.0856 24.4885 36.2757 25.2481 35.0543C25.619 34.5303 26.0721 34.0698 26.5901 33.6905C26.9582 33.436 27.3431 33.2066 27.7421 33.0038C28.6165 32.5728 29.5894 32.3806 30.562 32.4469L30.9323 32.4691Z" fill="#263238"/>
<path d="M34.8601 42.2751C34.8601 42.2751 34.8601 42.3574 34.7493 42.4618C34.6055 42.6049 34.4111 42.6856 34.2081 42.6865C34.0574 42.6827 33.9091 42.6469 33.7732 42.5814C33.6374 42.5159 33.517 42.4223 33.4201 42.3068C33.194 42.0246 33.0554 41.6826 33.0213 41.3227C32.9243 40.6846 33.0248 40.032 33.3093 39.4526C33.4001 39.2763 33.5368 39.1276 33.7049 39.0223C33.7629 38.9797 33.8324 38.9555 33.9043 38.9527C33.6938 39.0905 33.5235 39.2816 33.4106 39.5064C33.1722 40.0725 33.0944 40.6932 33.1859 41.3006C33.2149 41.6294 33.3367 41.9432 33.5372 42.2055C33.6177 42.3093 33.719 42.3952 33.8345 42.4579C33.95 42.5205 34.0772 42.5585 34.2081 42.5694C34.3877 42.5767 34.5643 42.522 34.7082 42.4144C34.8095 42.3353 34.8475 42.2688 34.8601 42.2751Z" fill="#EB996E"/>
<path d="M34.2531 41.522C34.2689 41.522 34.1455 41.6169 33.9714 41.522C33.877 41.4507 33.8012 41.3577 33.7505 41.2508C33.6998 41.1439 33.6757 41.0263 33.6802 40.9081C33.6771 40.6782 33.7543 40.4544 33.8986 40.2753C34.0094 40.1392 34.1107 40.0981 34.1233 40.1139C33.9636 40.3488 33.8687 40.6217 33.848 40.905C33.8429 40.9998 33.8571 41.0947 33.8897 41.1839C33.9224 41.2731 33.9728 41.3547 34.0379 41.4239C34.1455 41.503 34.2499 41.4872 34.2531 41.522Z" fill="#EB996E"/>
<path d="M23.0998 79.287L20.7197 89.1879V135.446L27.8535 135.658L28.4864 108.154L32.0723 91.1339L35.3733 108.626L38.687 134.955L45.039 134.772C45.039 134.772 43.9598 123.627 44.1497 120.514C44.3395 117.4 43.0388 107.588 43.0388 107.588C43.0388 107.588 43.2413 91.2067 42.9027 89.2354C42.5197 87.0204 42.1969 79.8313 42.1969 79.5497L23.0998 79.287Z" fill="#263238"/>
<path d="M32.0625 91.232C31.6823 91.3374 31.2967 91.4219 30.9073 91.4851C30.1952 91.6307 29.2141 91.8553 28.1475 92.1654C27.0809 92.4755 26.1283 92.7983 25.4478 93.0704C24.7673 93.3425 24.3464 93.4976 24.3369 93.4754C24.4228 93.4122 24.5164 93.3601 24.6154 93.3204C24.7958 93.2286 25.068 93.1052 25.4035 92.9628C26.2833 92.5946 27.1836 92.2777 28.1 92.0135C29.0168 91.7503 29.9477 91.539 30.8883 91.3807C31.2491 91.3206 31.5434 91.2826 31.746 91.2604C31.8494 91.2349 31.9562 91.2253 32.0625 91.232Z" fill="#455A64"/>
<path d="M39.1929 90.3586C39.1125 90.4115 39.0251 90.4531 38.9334 90.4821C38.7656 90.5517 38.5124 90.6403 38.1991 90.7415C36.5616 91.2489 34.8473 91.4631 33.1352 91.3743C32.8187 91.3585 32.5434 91.3332 32.3598 91.3079C32.2635 91.3037 32.1685 91.2844 32.0781 91.2509C32.4324 91.2326 32.7873 91.2326 33.1415 91.2509C33.9878 91.2577 34.8336 91.2091 35.6735 91.1054C36.517 90.9969 37.3523 90.832 38.1738 90.6118C38.5088 90.5098 38.849 90.4253 39.1929 90.3586Z" fill="#455A64"/>
<path d="M38.6703 97.9242C38.6386 97.9559 37.1353 96.5067 35.3091 94.6872C33.483 92.8678 32.0303 91.3648 32.0651 91.3332C32.0999 91.3015 33.6001 92.7507 35.4262 94.5702C37.2524 96.3896 38.7051 97.8926 38.6703 97.9242Z" fill="#455A64"/>
<path d="M22.6729 81.0558L25.7207 80.9483L26.0941 79.3282L23.1001 79.287L22.6729 81.0558Z" fill="#455A64"/>
<path d="M27.062 79.3408L26.7803 81.0558H37.484L37.5125 79.4832L27.062 79.3408Z" fill="#455A64"/>
<path d="M38.4307 79.4958V81.0558H42.2571L42.1906 79.5496L38.4307 79.4958Z" fill="#455A64"/>
<path d="M25.334 115.192C25.2897 115.192 24.739 113.499 24.106 111.394C23.473 109.29 22.9888 107.55 23.0331 107.537C23.0774 107.525 23.6281 109.23 24.2642 111.334C24.9004 113.439 25.3783 115.179 25.334 115.192Z" fill="#455A64"/>
<path d="M40.155 113.625C39.5947 112.918 39.0769 112.179 38.6042 111.41C38.0862 110.669 37.6137 109.896 37.1895 109.097C37.7523 109.803 38.2713 110.543 38.7434 111.312C39.2598 112.054 39.7312 112.827 40.155 113.625Z" fill="#455A64"/>
<path d="M23.935 52.1665C23.935 52.1665 19.8016 53.891 19.2762 55.7168C18.697 57.7419 18.102 62.1971 18.102 62.1971V73.9301C18.102 73.9301 17.2127 77.8853 17.3804 79.5497C17.5482 81.2141 19.349 84.1663 19.349 84.1663L22.2639 82.7519L23.1754 78.6226L23.3463 66.0258L23.0298 59.7828L23.935 52.1665Z" fill="#5CD9D8"/>
<path d="M23.9348 52.1664L26.682 49.9704L26.8149 48.1004L33.8885 46.9011L34.6955 48.4832L37.8605 49.3407L39.9873 48.7079L40.5063 49.9198L43.1522 58.0297L41.152 69.9304C41.152 69.9304 42.3388 76.2588 42.1869 79.5433L23.0961 79.2807C22.6024 78.6763 22.5264 77.5973 22.6245 76.3221L22.3682 60.3301L23.9348 52.1664Z" fill="#5CD9D8"/>
<path d="M39.7245 51.3628C39.6733 51.3858 39.6188 51.4007 39.563 51.4071L39.0883 51.5083L37.3476 51.8532C35.8759 52.1475 33.8662 52.5715 31.6254 53.0936C29.3847 53.6157 27.3939 54.1409 25.9475 54.5333L24.2511 54.9984L23.7827 55.1187C23.73 55.1382 23.6744 55.1489 23.6182 55.1503C23.6676 55.1241 23.7195 55.1028 23.7732 55.087L24.2322 54.9352C24.6309 54.8054 25.2133 54.6187 25.9317 54.4194C27.3718 53.9985 29.372 53.4701 31.6033 52.9322C33.8345 52.3943 35.8632 52.0019 37.3413 51.7393C38.0787 51.6064 38.6769 51.5051 39.0946 51.445L39.5725 51.3754C39.6225 51.3654 39.6735 51.3612 39.7245 51.3628Z" fill="#263238"/>
<path d="M27.2744 69.6298C27.4033 69.4944 27.5419 69.3686 27.689 69.2533L28.8379 68.2629C29.8032 67.4243 31.1166 66.2409 32.506 64.8708C33.8954 63.5007 35.1013 62.2034 35.9526 61.2509L36.9591 60.1181C37.0761 59.9725 37.2041 59.836 37.342 59.71C37.2416 59.8671 37.1306 60.0172 37.0097 60.1593C36.7882 60.4409 36.459 60.8396 36.0413 61.3269C35.2089 62.3015 34.0157 63.6146 32.6231 64.9879C31.2306 66.3612 29.8981 67.5351 28.9107 68.3515C28.4201 68.7628 28.015 69.0856 27.727 69.3007C27.5852 69.4224 27.4339 69.5324 27.2744 69.6298Z" fill="#263238"/>
<path d="M40.0226 65.3011C39.994 65.3474 39.9612 65.3908 39.9244 65.4309L39.6269 65.7789C39.3643 66.0954 38.9718 66.5099 38.4781 67.0257C35.8904 69.7082 33.0091 72.0911 29.8885 74.1293C29.2903 74.5185 28.7966 74.8223 28.4516 75.0248C28.2902 75.1134 28.1604 75.1894 28.0528 75.2526C28.0083 75.2834 27.9591 75.3069 27.9072 75.3223C27.9072 75.3223 27.9484 75.2843 28.0338 75.2242L28.4168 74.9679C28.7523 74.7527 29.2333 74.4331 29.822 74.0344C31.0025 73.2339 32.6008 72.0789 34.2782 70.693C35.9556 69.3071 37.3862 67.9528 38.3926 66.9434C38.8958 66.4371 39.301 66.0258 39.5763 65.7378L39.8928 65.4214C39.9751 65.336 40.0162 65.298 40.0226 65.3011Z" fill="#263238"/>
<path d="M36.25 77.8789C36.735 77.1866 37.1748 76.4636 37.5666 75.7146C37.9066 74.9412 38.1952 74.1464 38.4306 73.3351C38.4313 73.5869 38.395 73.8374 38.323 74.0787C38.1817 74.6682 37.978 75.241 37.7154 75.7874C37.455 76.3335 37.1367 76.8502 36.7659 77.3283C36.6215 77.5359 36.4477 77.7214 36.25 77.8789Z" fill="#263238"/>
<path d="M40.0762 49.2553L47.2226 48.9642L50.704 47.2998L51.0933 42.4111L50.7768 38.9526L53.7835 38.0602C53.7835 38.0602 56.2806 44.4678 56.1983 46.7998C56.1698 47.5846 56.1223 48.3566 56.0749 49.0401C56.0223 49.7449 55.7914 50.4248 55.4038 51.016C55.0163 51.6071 54.4849 52.0901 53.8594 52.4195L43.1398 58.036L40.0762 49.2553Z" fill="#5CD9D8"/>
<path d="M22.9854 62.9121C22.7937 62.458 22.6545 61.9835 22.5708 61.4977C22.4315 61.0236 22.3455 60.5354 22.3145 60.0422C22.5064 60.4964 22.6466 60.9709 22.7322 61.4566C22.8703 61.9309 22.9552 62.4191 22.9854 62.9121Z" fill="#263238"/>
<path d="M22.9254 60.5643C22.94 60.6266 22.9474 60.6903 22.9476 60.7542C22.9476 60.8997 22.9634 61.0706 22.9761 61.3048C22.995 61.8047 23.0172 62.4882 23.0489 63.3267C23.0932 65.0544 23.1565 67.4022 23.2261 70.0001C23.2943 71.2272 23.2636 72.4578 23.1343 73.6801C23.0615 74.2465 22.9001 74.7686 22.8178 75.2622C22.7807 75.4987 22.7638 75.7379 22.7672 75.9773C22.7672 76.2083 22.7355 76.4329 22.7197 76.6481C22.6483 77.3152 22.6664 77.9888 22.7735 78.6511C22.8094 78.8278 22.8781 78.9963 22.9761 79.1478C23.052 79.2428 23.1027 79.2871 23.0995 79.2934C23.0963 79.2997 23.0995 79.2934 23.0583 79.2649C23.0183 79.2371 22.9821 79.2041 22.9507 79.1668C22.8363 79.0193 22.7553 78.8488 22.7134 78.6669C22.576 78.0011 22.5386 77.3186 22.6026 76.6418C22.6026 76.4266 22.6279 76.2051 22.6374 75.971C22.6323 75.7265 22.6471 75.4821 22.6817 75.24C22.764 74.7337 22.9159 74.2243 22.9824 73.6579C23.1026 72.4425 23.1291 71.2196 23.0615 70.0001C23.0109 67.4022 22.9666 65.0544 22.9318 63.3267C22.9318 62.4882 22.9317 61.8015 22.9128 61.3048C22.9128 61.0801 22.9128 60.8966 22.9128 60.7542C22.911 60.6906 22.9152 60.6271 22.9254 60.5643Z" fill="#263238"/>
<path d="M42.3104 55.4065C42.1749 55.1557 42.0626 54.893 41.9749 54.6217C41.7882 54.1281 41.5477 53.4415 41.3008 52.6757C41.0539 51.91 40.8482 51.2107 40.7121 50.7013C40.6224 50.4297 40.5598 50.1498 40.5254 49.8659C40.6498 50.1227 40.7494 50.3907 40.8229 50.6665C41.0033 51.2202 41.2185 51.8878 41.4559 52.6251C41.6932 53.3624 41.9085 54.0269 42.0889 54.5806C42.1897 54.848 42.2639 55.1246 42.3104 55.4065Z" fill="#263238"/>
<path d="M20.8396 76.1006C20.3697 75.9128 19.955 75.6091 19.6341 75.218C19.3131 74.8269 19.0964 74.3609 19.0039 73.8635C19.2182 74.3069 19.4714 74.7304 19.7603 75.1292C20.0914 75.4835 20.4525 75.8085 20.8396 76.1006Z" fill="#263238"/>
<path d="M23.0963 80.9609C22.9851 81.1764 22.8337 81.3687 22.6501 81.5273C22.2253 81.9355 21.7188 82.2492 21.1641 82.4477C20.6093 82.6462 20.0188 82.7251 19.4314 82.6791C19.1881 82.672 18.9485 82.6183 18.7256 82.5208C18.7256 82.4955 19.0009 82.5525 19.4377 82.562C20.5849 82.5897 21.7015 82.1905 22.571 81.4418C22.9001 81.1571 23.0742 80.9419 23.0963 80.9609Z" fill="#263238"/>
<path d="M54.4102 39.9081C54.4102 39.9556 53.6253 40.0726 52.698 40.3859C51.7707 40.6992 51.0712 41.0757 51.0459 41.0187C52.0363 40.3293 53.2042 39.9394 54.4102 39.8954V39.9081Z" fill="#263238"/>
<path d="M53.4766 38.6236C53.4766 38.6457 53.4101 38.6742 53.3848 38.7691C53.375 38.7931 53.3717 38.8194 53.3754 38.8451C53.3791 38.8708 53.3895 38.895 53.4057 38.9153C53.422 38.9356 53.4433 38.9512 53.4676 38.9604C53.4918 38.9697 53.5181 38.9723 53.5437 38.968C53.5693 38.9636 53.5933 38.9526 53.6132 38.9358C53.6331 38.9191 53.6481 38.8974 53.6568 38.8729C53.6654 38.8485 53.6673 38.8221 53.6624 38.7966C53.6574 38.7711 53.6457 38.7474 53.6285 38.728C53.5716 38.6489 53.4956 38.6426 53.4924 38.6204C53.4893 38.5983 53.5874 38.5476 53.7108 38.6489C53.7472 38.6781 53.7756 38.716 53.7933 38.7592C53.8111 38.8024 53.8175 38.8493 53.8121 38.8957C53.8029 38.9556 53.7745 39.0108 53.7311 39.0531C53.6877 39.0953 53.6317 39.1223 53.5716 39.1299C53.5191 39.1423 53.4641 39.139 53.4136 39.1202C53.3631 39.1014 53.3192 39.068 53.2877 39.0243C53.2562 38.9805 53.2384 38.9284 53.2365 38.8746C53.2346 38.8207 53.2488 38.7675 53.2772 38.7217C53.369 38.5856 53.4798 38.6014 53.4766 38.6236Z" fill="#263238"/>
<path d="M34.7153 48.4833C34.6143 48.5257 34.5077 48.5535 34.3988 48.5656L33.5411 48.7269L30.7116 49.2427L27.8822 49.7775L27.0245 49.9325C26.9209 49.958 26.8147 49.9707 26.708 49.9705C26.8081 49.9218 26.9147 49.8877 27.0245 49.8692C27.2239 49.8154 27.5119 49.7458 27.8727 49.6636C28.5911 49.4958 29.5881 49.287 30.6926 49.0813C31.7972 48.8757 32.8037 48.7143 33.5411 48.613C33.905 48.5624 34.2025 48.5244 34.4083 48.5023C34.5095 48.4843 34.6125 48.4779 34.7153 48.4833Z" fill="#263238"/>
<path d="M21.8964 59.6529C21.861 59.5743 21.8365 59.4913 21.8236 59.4061C21.7791 59.1794 21.7495 58.95 21.735 58.7195C21.6979 57.9592 21.7244 57.1971 21.8141 56.4412C21.9059 55.5584 22.0261 54.761 22.1053 54.1883C22.1309 53.875 22.1796 53.5641 22.2509 53.258C22.2747 53.5746 22.2641 53.8929 22.2192 54.2073C22.1717 54.7863 22.0705 55.5837 21.9787 56.4634C21.8909 57.2121 21.8487 57.9656 21.8521 58.7195C21.8616 59.2922 21.9249 59.6466 21.8964 59.6529Z" fill="#263238"/>
<path d="M29.6955 65.5385C29.6544 65.5163 30.6703 63.5102 31.9616 61.0516C33.2529 58.593 34.3353 56.6217 34.3765 56.6439C34.4176 56.666 33.4017 58.6721 32.1072 61.1307C30.8128 63.5893 29.7367 65.5701 29.6955 65.5385Z" fill="#263238"/>
<path d="M44.5767 54.2201C44.5073 54.4599 44.4162 54.6929 44.3046 54.9162C44.1273 55.3402 43.8931 55.9319 43.6716 56.5996C43.45 57.2672 43.2981 57.8653 43.1937 58.3304C43.1523 58.5758 43.0898 58.8172 43.0069 59.0519C42.9973 58.8008 43.0218 58.5496 43.0797 58.3051C43.1834 57.7104 43.3283 57.1236 43.5133 56.549C43.6983 55.9729 43.9258 55.4113 44.1938 54.8688C44.2926 54.6368 44.4213 54.4187 44.5767 54.2201Z" fill="#263238"/>
<path d="M21.3239 58.0424C21.1915 58.0884 21.0561 58.1254 20.9188 58.1532C20.6687 58.2164 20.3238 58.305 19.944 58.419C19.5642 58.5329 19.2287 58.6436 18.9945 58.7354C18.8648 58.7882 18.7316 58.8315 18.5957 58.8651C18.717 58.794 18.8453 58.7357 18.9787 58.6911C19.2192 58.5962 19.5578 58.4728 19.9281 58.3747C20.2984 58.2766 20.6561 58.1785 20.9124 58.1279C21.0468 58.0874 21.1845 58.0588 21.3239 58.0424Z" fill="#E0E0E0"/>
<path d="M33.0593 58.6815C33.0593 58.6973 30.8154 59.3618 28.0366 60.1624C25.2578 60.9629 22.9854 61.5989 22.9854 61.5831C22.9854 61.5673 25.2293 60.8996 28.0112 60.0991C30.7932 59.2985 33.053 58.6625 33.0593 58.6815Z" fill="#E0E0E0"/>
<path d="M42.222 56.0109C42.222 56.0268 40.2154 56.7703 37.731 57.669C35.2465 58.5676 33.2241 59.2827 33.2178 59.2669C33.2115 59.2511 35.2212 58.5075 37.7088 57.6057C40.1964 56.7039 42.2157 55.9919 42.222 56.0109Z" fill="#E0E0E0"/>
<path d="M41.3831 52.7676L41.1869 52.8245L40.6204 52.9764L38.5315 53.527C36.7687 53.989 34.3285 54.6218 31.6257 55.2895C28.9228 55.9571 26.47 56.533 24.6913 56.9285L22.5803 57.3842L22.0043 57.5013C21.8714 57.5297 21.8018 57.5392 21.8018 57.5392L22.0011 57.4886L22.574 57.3589L24.6787 56.8811C26.4574 56.4761 28.9102 55.8938 31.6099 55.2262L38.5189 53.4827L40.6141 52.9511L41.1837 52.8119L41.3831 52.7676Z" fill="#E0E0E0"/>
<path d="M37.4263 49.1162C37.4263 49.1352 34.4228 49.8978 30.7103 50.8186C26.9979 51.7393 23.9817 52.4734 23.9785 52.4545C23.9754 52.4355 26.9789 51.6761 30.6945 50.7553C34.4101 49.8345 37.4231 49.0972 37.4263 49.1162Z" fill="#E0E0E0"/>
<path d="M44.2064 49.2427C44.2093 49.2627 44.2093 49.2829 44.2064 49.3029L44.2286 49.4737C44.2444 49.6193 44.2634 49.8345 44.2792 50.1066C44.3204 50.7989 44.3204 51.4931 44.2792 52.1855C44.2329 52.878 44.1441 53.567 44.0134 54.2486C43.9627 54.5112 43.9184 54.72 43.8804 54.8814C43.8804 54.9384 43.852 54.9953 43.8393 55.0491C43.8266 55.1029 43.8203 55.1061 43.8203 55.1029C43.8203 55.0997 43.8203 55.0839 43.8203 55.0459L43.8488 54.8751C43.8826 54.6915 43.9205 54.4859 43.9627 54.2581C44.0513 53.7328 44.1526 52.9924 44.2064 52.1981C44.2499 51.5082 44.2584 50.8164 44.2318 50.1256C44.2318 49.8914 44.2096 49.6857 44.2001 49.4927V49.3218C44.1987 49.2953 44.2008 49.2687 44.2064 49.2427Z" fill="#E0E0E0"/>
<path d="M49.1052 54.7168C49.1052 54.7168 49.1052 54.6979 49.1052 54.6567L49.0799 54.4859C49.0609 54.334 49.0324 54.1188 48.9881 53.853C48.879 53.1584 48.7257 52.4714 48.5292 51.7963C48.3279 51.1219 48.0858 50.4605 47.8044 49.8155C47.6936 49.5686 47.6018 49.3693 47.5354 49.2332L47.4626 49.075C47.4539 49.0566 47.4465 49.0375 47.4404 49.0181C47.4404 49.0181 47.4563 49.0181 47.4752 49.0687C47.4942 49.1193 47.529 49.1699 47.5607 49.2206C47.6335 49.3535 47.7316 49.537 47.8455 49.7965C48.1434 50.4372 48.3931 51.0994 48.5925 51.7773C48.7896 52.4556 48.9376 53.1471 49.0355 53.8467C49.0735 54.1156 49.0957 54.334 49.1052 54.4795C49.1052 54.5396 49.1052 54.5966 49.1052 54.6536C49.1074 54.6746 49.1074 54.6958 49.1052 54.7168Z" fill="#E0E0E0"/>
<path d="M53.1663 52.2803C53.135 52.2133 53.1075 52.1447 53.084 52.0746L52.8751 51.5082C52.6916 51.0304 52.4225 50.3817 52.0744 49.6824C51.7263 48.9831 51.3686 48.3788 51.0964 47.9484C50.9793 47.7617 50.8686 47.5909 50.78 47.439C50.7378 47.3783 50.6997 47.3149 50.666 47.2491C50.7151 47.3042 50.7606 47.3623 50.8021 47.4232C50.8876 47.5371 51.0047 47.708 51.1471 47.9231C51.5129 48.4801 51.8458 49.0581 52.144 49.654C52.4419 50.2507 52.704 50.8645 52.9289 51.4924C53.0144 51.7329 53.0777 51.929 53.1188 52.0651C53.1411 52.1352 53.157 52.2073 53.1663 52.2803Z" fill="#E0E0E0"/>
<path d="M55.9008 45.7873C55.8347 45.7867 55.7688 45.7782 55.7046 45.762L55.1761 45.667C54.7298 45.5879 54.1127 45.4867 53.429 45.3917C52.7454 45.2968 52.1219 45.2335 51.6725 45.1892L51.1376 45.1386C51.0717 45.1346 51.0062 45.1261 50.9414 45.1133C51.0066 45.1051 51.0725 45.1051 51.1376 45.1133C51.2642 45.1133 51.4541 45.1133 51.6757 45.1418C52.1283 45.1734 52.7517 45.2335 53.4385 45.3285C54.1253 45.4234 54.7425 45.531 55.1856 45.6227C55.4071 45.667 55.5875 45.705 55.7109 45.7367C55.7754 45.7489 55.8389 45.7658 55.9008 45.7873Z" fill="#E0E0E0"/>
<path d="M55.1411 41.4713H54.9829C54.8816 41.4713 54.736 41.4713 54.5556 41.4713C54.0847 41.4732 53.6147 41.5134 53.1504 41.5915C52.6875 41.6701 52.2315 41.7844 51.7863 41.9333L51.3843 42.0725C51.3359 42.0954 51.2849 42.1124 51.2324 42.1231C51.2766 42.093 51.3245 42.0685 51.3748 42.0504C51.4666 42.0061 51.6027 41.9523 51.7736 41.889C52.2181 41.7253 52.6769 41.6035 53.144 41.5251C53.6116 41.4487 54.0851 41.4148 54.5587 41.4238C54.7026 41.4251 54.8462 41.4335 54.9892 41.4492C55.0406 41.4496 55.0917 41.457 55.1411 41.4713Z" fill="#E0E0E0"/>
<path d="M30.1285 63.988C30.1285 64.007 28.5682 64.3708 26.6471 64.8043C24.726 65.2378 23.134 65.5701 23.1309 65.5701C23.1277 65.5701 24.6912 65.1872 26.6123 64.7537C28.5334 64.3202 30.1253 63.988 30.1285 63.988Z" fill="#E0E0E0"/>
<path d="M32.3441 64.7854C31.9744 64.7964 31.6044 64.7837 31.2364 64.7474C30.8664 64.7362 30.4974 64.7014 30.1318 64.643C30.5015 64.6358 30.8713 64.6485 31.2396 64.681C31.6093 64.6964 31.978 64.7312 32.3441 64.7854Z" fill="#E0E0E0"/>
<path d="M42.5448 60.8902C42.5448 60.8902 40.7377 61.3901 38.5001 61.9692C36.2625 62.5482 34.4426 63.0039 34.4395 62.9849C34.4363 62.9659 36.2435 62.4849 38.4842 61.9059C40.725 61.3268 42.5385 60.8712 42.5448 60.8902Z" fill="#E0E0E0"/>
<path d="M27.3813 69.2659C27.3813 69.2849 26.4762 69.4621 25.3495 69.6614C24.2228 69.8608 23.3018 70 23.3018 70C23.3018 70 24.2101 69.807 25.3368 69.6077C26.4635 69.4083 27.3782 69.2501 27.3813 69.2659Z" fill="#E0E0E0"/>
<path d="M38.1769 66.8358C38.1769 66.8516 36.1166 67.1965 33.5688 67.6015C31.021 68.0065 28.9512 68.3229 28.9512 68.3039C28.9512 68.285 31.0115 67.9432 33.5593 67.5382C36.1071 67.1332 38.1769 66.8358 38.1769 66.8358Z" fill="#E0E0E0"/>
<path d="M41.7316 67.1522C41.6855 67.1666 41.6375 67.1741 41.5892 67.1744L41.2063 67.2092C40.8898 67.2377 40.4372 67.2788 39.9403 67.3421C39.4434 67.4054 38.9908 67.4718 38.6743 67.5224L38.2945 67.5857C38.2484 67.5927 38.2014 67.5927 38.1553 67.5857L38.2914 67.5477C38.38 67.5256 38.5066 67.4971 38.668 67.4655C38.9845 67.4022 39.4307 67.3263 39.934 67.263C40.4372 67.1997 40.8834 67.1649 41.1999 67.1491C41.3645 67.1491 41.4943 67.1491 41.5861 67.1491C41.6345 67.1445 41.6834 67.1456 41.7316 67.1522Z" fill="#E0E0E0"/>
<path d="M30.8978 73.2117C30.8735 73.2255 30.8481 73.2372 30.8218 73.2465L30.6003 73.3414C30.4072 73.4205 30.1224 73.5281 29.7711 73.6578C27.926 74.2993 26.0039 74.693 24.0552 74.8286C23.6817 74.8539 23.3811 74.8666 23.169 74.8697H22.8525H22.9348H23.1754C23.3842 74.8697 23.6849 74.8381 24.0584 74.8096C25.0276 74.7265 25.9913 74.5881 26.9448 74.3951C27.8976 74.1979 28.8381 73.9453 29.7616 73.6388C30.116 73.5218 30.3945 73.4205 30.5971 73.3477L30.8218 73.2655L30.8978 73.2117Z" fill="#E0E0E0"/>
<path d="M41.7189 71.4176C41.6819 71.4348 41.6438 71.4496 41.6049 71.4619L41.2726 71.5758C40.9815 71.6771 40.5605 71.8131 40.0383 71.9745C38.9907 72.2909 37.5349 72.7055 35.9239 73.0852C34.313 73.4649 32.8065 73.7338 31.7272 73.9047C31.186 73.9933 30.7461 74.0566 30.4423 74.0946L30.0941 74.1389C30.053 74.1411 30.0118 74.1411 29.9707 74.1389L30.091 74.1167L30.4391 74.0597L31.7051 73.8509C32.7843 73.6674 34.2687 73.3889 35.8954 73.0092C37.5222 72.6295 38.9781 72.2308 40.0288 71.9176L41.2663 71.5442L41.6049 71.4398L41.7189 71.4176Z" fill="#E0E0E0"/>
<path d="M36.8351 76.7778L36.6959 76.8062L36.2939 76.8759C35.9426 76.9328 35.4331 77.0119 34.8032 77.0942C33.5373 77.2651 31.7966 77.4549 29.8596 77.5593C27.9227 77.6638 26.163 77.6669 24.8939 77.6321C24.2609 77.6163 23.745 77.5941 23.3905 77.572L22.9791 77.5498H22.8398H22.9854H23.3937C23.7482 77.5498 24.2609 77.5783 24.897 77.5878C26.163 77.61 27.9227 77.5878 29.8596 77.496C31.7966 77.4043 33.5404 77.2113 34.8001 77.0531C35.4331 76.974 35.9394 76.9043 36.2908 76.8537L36.699 76.7968L36.8351 76.7778Z" fill="#E0E0E0"/>
<path d="M41.9055 76.0405C41.8477 76.0472 41.7893 76.0472 41.7314 76.0405H41.2567C40.8547 76.0405 40.3072 76.0405 39.6901 76.0405C39.0729 76.0405 38.5254 76.0722 38.1234 76.0943L37.6487 76.1165C37.5908 76.1226 37.5325 76.1226 37.4746 76.1165C37.5319 76.1035 37.5901 76.095 37.6487 76.0911L38.1203 76.0468C38.5222 76.0152 39.0697 75.9836 39.7027 75.9741C40.3357 75.9646 40.8706 75.9741 41.2852 75.9899L41.7599 76.0184L41.9055 76.0405Z" fill="#E0E0E0"/>
<path d="M23.017 63.4057C23.017 63.4215 21.8871 63.6399 20.4851 63.8898C19.083 64.1398 17.9531 64.3297 17.9531 64.3107C17.9531 64.2917 19.083 64.0765 20.4851 63.8266C21.8871 63.5766 23.0138 63.3867 23.017 63.4057Z" fill="#E0E0E0"/>
<path d="M22.8463 68.3704C22.8463 68.3862 21.7924 68.5065 20.4885 68.633C19.1845 68.7596 18.1211 68.8482 18.1211 68.8292C18.1211 68.8102 19.175 68.6932 20.4821 68.5666C21.7892 68.44 22.8463 68.3514 22.8463 68.3704Z" fill="#E0E0E0"/>
<path d="M23.2743 72.3605C23.2743 72.3795 22.1792 72.4269 20.8247 72.4681C19.4701 72.5092 18.375 72.5282 18.375 72.5092C18.375 72.4902 19.4701 72.4428 20.8247 72.4016C22.1792 72.3605 23.2743 72.3415 23.2743 72.3605Z" fill="#E0E0E0"/>
<path d="M22.3521 77.2777C22.2921 77.2831 22.2317 77.2831 22.1717 77.2777C22.0578 77.2777 21.8901 77.2777 21.6843 77.2461C20.6057 77.1495 19.5492 76.8825 18.5542 76.455C18.3643 76.3728 18.2124 76.3032 18.1111 76.2494C18.0555 76.2273 18.0033 76.1975 17.9561 76.1608C18.0127 76.1781 18.0678 76.2003 18.1206 76.2272C18.2282 76.2715 18.3802 76.338 18.5732 76.4139C19.0706 76.6118 19.5802 76.7777 20.0987 76.9107C20.6195 77.0409 21.1481 77.1381 21.6812 77.2018L22.1654 77.2524C22.2283 77.2553 22.2908 77.2638 22.3521 77.2777Z" fill="#E0E0E0"/>
<path d="M22.6087 78.6446C22.5583 78.6919 22.5044 78.7353 22.4473 78.7743C22.3397 78.8566 22.1815 78.9673 21.9821 79.0908C21.4623 79.4348 20.9186 79.7415 20.3553 80.0084C19.791 80.2757 19.2082 80.502 18.6114 80.6855C18.3804 80.752 18.1936 80.8058 18.0639 80.8342C17.9973 80.853 17.9297 80.8678 17.8613 80.8785C17.9246 80.8496 17.9902 80.8263 18.0576 80.8089C18.1873 80.771 18.374 80.714 18.5956 80.6381C19.7768 80.2508 20.9057 79.7195 21.9567 79.0559C22.1593 78.9294 22.3207 78.8218 22.4315 78.7395C22.4876 78.7026 22.5469 78.6709 22.6087 78.6446Z" fill="#E0E0E0"/>
<path d="M25.9515 79.6067C25.9515 79.6067 25.9515 79.5212 25.9515 79.3567C25.9515 79.1922 25.9673 78.9327 25.9768 78.6321C25.999 77.9992 26.0275 77.0816 26.0623 75.971C26.1256 73.7244 26.1794 70.6203 26.1541 67.1902C26.1287 63.7602 26.0338 60.6561 25.9388 58.4095C25.8882 57.2989 25.8439 56.3971 25.8154 55.7516C25.8154 55.451 25.7901 55.2105 25.7806 55.0269C25.7711 54.8434 25.7806 54.777 25.7806 54.777C25.7806 54.777 25.7806 54.8624 25.7996 55.0269C25.8186 55.1915 25.8344 55.4446 25.8344 55.7611C25.8755 56.3939 25.9262 57.2989 25.9768 58.4222C26.0844 60.6656 26.1889 63.7729 26.2142 67.2029C26.2395 70.6329 26.1762 73.7402 26.1034 75.9868C26.0654 77.1101 26.0275 78.0182 25.9958 78.6448L25.9578 79.3694C25.961 79.5212 25.9515 79.6067 25.9515 79.6067Z" fill="#E0E0E0"/>
<path d="M31.5495 61.9185C31.5305 61.9185 31.2837 60.0674 30.9988 57.7828C30.714 55.4983 30.4988 53.644 30.5178 53.6409C30.5368 53.6377 30.7805 55.4888 31.0653 57.7765C31.3501 60.0643 31.5653 61.9153 31.5495 61.9185Z" fill="#E0E0E0"/>
<path d="M31.0401 65.6651C30.9462 65.2558 30.8744 64.8417 30.8249 64.4247C30.7268 63.738 30.6603 63.178 30.6762 63.1748C30.7697 63.5842 30.8416 63.9982 30.8914 64.4152C30.9639 64.8288 31.0135 65.246 31.0401 65.6651Z" fill="#E0E0E0"/>
<path d="M32.3349 72.4681C32.3159 72.4681 32.2875 70.8702 32.2716 68.8989C32.2558 66.9276 32.2558 65.3265 32.2716 65.3265C32.2875 65.3265 32.3191 66.9244 32.3381 68.8989C32.3571 70.8734 32.3539 72.4681 32.3349 72.4681Z" fill="#E0E0E0"/>
<path d="M32.2337 79.5085C32.2179 79.5085 32.0059 78.0624 31.7622 76.2778C31.5185 74.4932 31.3349 73.0439 31.3539 73.0408C31.3729 73.0376 31.5849 74.4837 31.8286 76.2683C32.0723 78.0529 32.2527 79.4926 32.2337 79.5085Z" fill="#E0E0E0"/>
<path d="M38.4942 65.8864C38.4752 65.8864 37.9909 62.9216 37.4086 59.2637C36.8262 55.6059 36.3673 52.6188 36.3863 52.6188C36.4053 52.6188 36.8895 55.5806 37.4719 59.2416C38.0542 62.9026 38.4942 65.8864 38.4942 65.8864Z" fill="#E0E0E0"/>
<path d="M37.7022 74.5122C37.6864 74.5122 37.5218 73.1959 37.335 71.5695C37.1483 69.9431 37.0186 68.6172 37.0186 68.6172C37.0186 68.6172 37.2021 69.9336 37.3889 71.56C37.5756 73.1864 37.7212 74.5122 37.7022 74.5122Z" fill="#E0E0E0"/>
<path d="M51.6886 48.7744C51.2905 49.1388 50.8674 49.475 50.4226 49.7806C49.9363 50.1169 49.43 50.4233 48.9066 50.6983C48.2682 51.0333 47.6085 51.3261 46.9317 51.5748C46.2518 51.8141 45.5572 52.0096 44.8523 52.1601C44.2757 52.2803 43.6923 52.3649 43.1053 52.4133C42.5646 52.4632 42.0211 52.4769 41.4785 52.4544H41.5925H41.9089C42.1875 52.4544 42.5957 52.4323 43.0926 52.3848C43.6774 52.3286 44.2585 52.2399 44.8333 52.119C45.5348 51.9647 46.2261 51.767 46.9032 51.5273C47.5769 51.2798 48.2344 50.9902 48.8718 50.6603C49.3914 50.3869 49.8954 50.0848 50.3814 49.7553C50.7961 49.4737 51.122 49.2301 51.3309 49.0529L51.5841 48.8535L51.6886 48.7744Z" fill="#E0E0E0"/>
<path d="M51.7165 48.7807C51.7117 48.7535 51.7117 48.7256 51.7165 48.6984C51.7165 48.6256 51.7324 48.5465 51.7387 48.4611C51.764 48.2174 51.7957 47.9232 51.8305 47.5846C51.9001 46.8442 51.9855 45.8221 52.0362 44.6893C52.0868 43.5565 52.0963 42.5313 52.09 41.7877C52.09 41.446 52.09 41.1549 52.09 40.9081C52.09 40.8226 52.09 40.7435 52.09 40.6708C52.09 40.598 52.09 40.5853 52.09 40.5853C52.094 40.6126 52.094 40.6403 52.09 40.6676C52.09 40.7435 52.09 40.8195 52.1058 40.9081C52.1058 41.1169 52.128 41.4175 52.1375 41.7877C52.1375 42.5313 52.1375 43.5597 52.1026 44.6925C52.0678 45.8253 51.9602 46.8505 51.8748 47.5878C51.8336 47.958 51.7957 48.2554 51.764 48.4643C51.764 48.5497 51.7387 48.6256 51.7292 48.6984C51.7197 48.7712 51.7165 48.7807 51.7165 48.7807Z" fill="#E0E0E0"/>
<path d="M54.3723 40.3638C54.3723 40.3638 54.3913 40.4397 54.4198 40.5853C54.4482 40.7308 54.4957 40.946 54.5622 41.2181C54.6919 41.7687 54.9198 42.5503 55.1793 43.528C55.5173 44.6677 55.6607 45.8561 55.6034 47.0435C55.5685 47.7756 55.3687 48.4904 55.0191 49.1347C54.6695 49.779 54.179 50.3361 53.5842 50.7646C52.9784 51.2172 52.3441 51.6305 51.6853 52.0018C51.0523 52.3752 50.4573 52.7296 49.8781 53.0618C48.7197 53.7295 47.6626 54.3085 46.7701 54.7832C45.8776 55.2578 45.1497 55.628 44.6465 55.8811L44.0641 56.1722L43.8584 56.2672L44.0578 56.1596L44.6338 55.8432C45.137 55.5837 45.8618 55.2103 46.748 54.7262C47.6342 54.2421 48.6912 53.663 49.8464 52.9954C50.4256 52.66 51.0301 52.3056 51.6536 51.929C52.3042 51.557 52.9311 51.1449 53.5304 50.695C54.1175 50.2722 54.6018 49.7228 54.9475 49.0874C55.2932 48.452 55.4915 47.7469 55.5275 47.0245C55.5855 45.8434 55.4475 44.6609 55.1192 43.5248C54.866 42.5471 54.6445 41.7592 54.521 41.2086C54.3976 40.658 54.3723 40.3638 54.3723 40.3638Z" fill="#E0E0E0"/>
<path d="M19.3262 73.9015C19.3262 73.9015 19.3262 73.8319 19.3262 73.7053C19.3262 73.5787 19.3515 73.3889 19.3705 73.1452L19.5382 71.0885C19.6743 69.3513 19.8547 66.9497 20.0003 64.2949C20.1459 61.6401 20.244 59.2321 20.3168 57.4886C20.3453 56.6343 20.3674 55.935 20.3833 55.4256C20.3833 55.1977 20.3896 55.011 20.4022 54.8655C20.4022 54.7358 20.4022 54.6693 20.4022 54.6693C20.4022 54.6693 20.4022 54.7358 20.4022 54.8655C20.4022 54.9952 20.4022 55.1977 20.4022 55.4256C20.4022 55.935 20.3769 56.6343 20.3579 57.4918C20.3136 59.2321 20.2218 61.6401 20.0731 64.2981C19.9243 66.956 19.7566 69.3608 19.592 71.0917C19.5161 71.9428 19.4496 72.6421 19.4053 73.1484C19.38 73.3762 19.361 73.5629 19.3483 73.7053C19.3357 73.8477 19.3262 73.9015 19.3262 73.9015Z" fill="#E0E0E0"/>
<path d="M20.1591 82.9733C20.1591 82.9733 20.1591 82.948 20.1274 82.8974C20.0958 82.8468 20.0831 82.755 20.0578 82.6727C19.9977 82.4765 19.9154 82.1918 19.8268 81.8374C19.5951 80.9102 19.4207 79.9697 19.3045 79.0212C19.1911 78.0763 19.1383 77.1251 19.1463 76.1734C19.1463 75.8064 19.1463 75.5089 19.1716 75.3032C19.1716 75.2178 19.1716 75.1419 19.1716 75.0691V74.9868C19.1752 75.0141 19.1752 75.0418 19.1716 75.0691V75.3064C19.1716 75.5089 19.1716 75.8064 19.1716 76.1734C19.1802 77.1252 19.2404 78.0759 19.352 79.0212C19.4671 79.9663 19.634 80.9043 19.8521 81.831C19.9375 82.1886 20.0103 82.4639 20.0641 82.6727C20.0873 82.755 20.1063 82.8309 20.1211 82.9005L20.1591 82.9733Z" fill="#E0E0E0"/>
<path d="M22.1819 82.0241C22.1819 82.0241 22.1819 81.9481 22.1819 81.8026C22.1819 81.657 22.1819 81.4292 22.1819 81.1697C22.1819 80.597 22.1819 79.8028 22.2041 78.8282C22.2041 76.8537 22.2294 74.123 22.2041 71.1075C22.1788 68.092 22.1345 65.3581 22.0902 63.3836C22.0649 62.409 22.049 61.6148 22.0332 61.0421C22.0332 60.7795 22.0332 60.5675 22.0332 60.4092C22.0332 60.251 22.0332 60.1877 22.0332 60.1877C22.0332 60.1877 22.0332 60.2637 22.0332 60.4092C22.0332 60.5548 22.0332 60.7826 22.0617 61.0421C22.0617 61.6148 22.1028 62.409 22.1345 63.3836C22.1914 65.3581 22.2484 68.0888 22.2706 71.1075C22.2927 74.1262 22.2706 76.8537 22.2452 78.8314C22.2452 79.8028 22.2168 80.6002 22.2041 81.1697C22.2041 81.4324 22.2041 81.6444 22.1883 81.8026C22.1725 81.9608 22.1819 82.0241 22.1819 82.0241Z" fill="#E0E0E0"/>
<path d="M26.0961 54.5807C26.0771 54.5807 26.017 53.6884 25.96 52.5873C25.903 51.4861 25.8746 50.5938 25.8936 50.5906C25.9125 50.5875 25.9727 51.483 26.0265 52.5841C26.0803 53.6853 26.1151 54.5776 26.0961 54.5807Z" fill="#E0E0E0"/>
<path d="M30.7842 53.2644C30.7652 53.2644 30.6766 52.3563 30.5848 51.233C30.493 50.1097 30.436 49.1952 30.4518 49.1952C30.4677 49.1952 30.5595 50.1033 30.6512 51.2266C30.743 52.3499 30.8 53.2612 30.7842 53.2644Z" fill="#E0E0E0"/>
<path d="M35.882 52.1031C35.863 52.1031 35.6067 51.2772 35.3092 50.2489C35.0117 49.2205 34.7838 48.382 34.7996 48.3756C34.8154 48.3693 35.075 49.2015 35.3725 50.2299C35.67 51.2583 35.8978 52.0968 35.882 52.1031Z" fill="#E0E0E0"/>
<path d="M34.1963 47.4802C34.1721 47.4904 34.1465 47.4968 34.1203 47.4992L33.8988 47.5403L33.0822 47.6827C32.3954 47.8029 31.446 47.9801 30.4047 48.1985C29.3634 48.4168 28.4203 48.6351 27.743 48.7997L26.9391 48.9958L26.7207 49.0465C26.6946 49.0514 26.6677 49.0514 26.6416 49.0465L26.7176 49.0211L26.9328 48.9579L27.7303 48.7427C28.4076 48.5655 29.3476 48.3377 30.392 48.1099C31.4365 47.882 32.3859 47.7238 33.0759 47.6131L33.8924 47.4928L34.1172 47.4644C34.1441 47.466 34.1707 47.4713 34.1963 47.4802Z" fill="#E0E0E0"/>
<path d="M27.9831 49.7678C27.9552 49.467 27.9489 49.1646 27.9642 48.8629C27.9585 48.5616 27.9733 48.2603 28.0085 47.9611C28.0385 48.2617 28.0459 48.5642 28.0306 48.866C28.0365 49.1674 28.0207 49.4688 27.9831 49.7678Z" fill="#E0E0E0"/>
<path d="M32.6261 48.9483C32.5459 48.6819 32.4846 48.4102 32.4425 48.1351C32.3795 47.8637 32.3393 47.5874 32.3223 47.3093C32.47 47.8466 32.5758 48.3946 32.6388 48.9483H32.6261Z" fill="#E0E0E0"/>
<path d="M139.578 140.031C139.578 140.075 108.346 140.113 69.8291 140.113C31.312 140.113 0.0742188 140.075 0.0742188 140.031C0.0742188 139.986 31.2993 139.948 69.8291 139.948C108.359 139.948 139.578 139.983 139.578 140.031Z" fill="#263238"/>
<path d="M11.085 23.8718C11.0376 23.8682 10.99 23.8682 10.9426 23.8718H10.5185C10.2871 23.8757 10.0564 23.8979 9.82857 23.9382C9.69564 23.9604 9.54689 23.973 9.39498 24.0047L8.90441 24.1249C6.93728 24.6403 5.24 25.8847 4.15703 27.6055C3.39727 28.7829 2.96067 30.1393 2.89106 31.5387C2.79577 33.1484 3.1849 34.7497 4.00828 36.1363C4.91441 37.6743 6.2963 38.876 7.94544 39.56C8.81324 39.9201 9.73796 40.1236 10.6768 40.1612C11.64 40.2215 12.6061 40.1014 13.5252 39.8068L13.6075 39.7815H13.541L18.3169 41.4364L18.51 41.5028L18.4498 41.3066C18.0226 39.9334 17.608 38.6044 17.2092 37.3324L17.1902 37.4273C18.0347 36.4778 18.6461 35.3445 18.9757 34.1174C19.3054 32.8902 19.3442 31.6032 19.0891 30.3584C18.8802 29.3049 18.4615 28.3042 17.858 27.4157C17.3395 26.6572 16.6977 25.9909 15.959 25.4444C15.6427 25.2125 15.3118 25.0011 14.9684 24.8115C14.6607 24.6494 14.3437 24.5057 14.0189 24.3812C13.7536 24.2767 13.4819 24.189 13.2055 24.1186C12.9639 24.0496 12.7174 23.9988 12.4681 23.9667C12.2434 23.935 12.0472 23.9034 11.8763 23.8876H11.4427H11.1768C11.1463 23.8841 11.1155 23.8841 11.085 23.8876C11.1154 23.8928 11.1465 23.8928 11.1768 23.8876L11.4395 23.9097L11.8699 23.9414C12.0409 23.9604 12.2371 23.9983 12.4555 24.0331C12.7016 24.0724 12.9448 24.1284 13.1834 24.2008C13.4713 24.2763 13.7536 24.3714 14.0284 24.4856C14.3528 24.6133 14.6698 24.7591 14.9779 24.9223C15.3137 25.1127 15.6372 25.324 15.9464 25.5551C16.6631 26.102 17.2853 26.7625 17.7884 27.5106C18.3736 28.3859 18.7781 29.3691 18.9784 30.4027C19.2191 31.622 19.1729 32.8805 18.8433 34.0788C18.5138 35.2771 17.9099 36.3823 17.0794 37.3071L17.0414 37.3482V37.402C17.4381 38.6677 17.8485 39.9945 18.2726 41.3826L18.4055 41.2529L13.6328 39.5948H13.6012H13.5663L13.4904 39.6233C12.5914 39.9098 11.647 40.0268 10.7053 39.9682C9.79089 39.9305 8.89013 39.7334 8.04355 39.386C6.43475 38.7195 5.0847 37.5507 4.19501 36.054C3.44586 34.7859 3.05861 33.3367 3.07535 31.864C3.09209 30.3913 3.51217 28.9513 4.28996 27.7005C5.3483 26.0011 7.00465 24.7594 8.9329 24.2198L9.41397 24.0932C9.56588 24.0553 9.71147 24.0395 9.84756 24.0173C10.0716 23.9694 10.2992 23.9398 10.528 23.9287L10.949 23.8971C10.9949 23.8924 11.0405 23.884 11.085 23.8718Z" fill="#263238"/>
<path d="M14.0501 31.9248C14.0431 31.4299 13.9033 30.946 13.6453 30.5236C13.3872 30.1013 13.0204 29.756 12.5832 29.5239C12.1459 29.2917 11.6544 29.1813 11.1599 29.2042C10.6654 29.227 10.1861 29.3823 9.77212 29.6537C9.35817 29.9251 9.02476 30.3028 8.80676 30.7471C8.58875 31.1915 8.49416 31.6862 8.53288 32.1796C8.57159 32.673 8.74219 33.147 9.02682 33.5519C9.31146 33.9569 9.69969 34.2779 10.1509 34.4815C10.1509 34.7979 10.1509 35.1776 10.1509 35.1776L12.5721 35.1428C12.5721 35.1428 12.5721 34.7504 12.5721 34.4024C13.0229 34.1656 13.3994 33.809 13.6603 33.3718C13.9211 32.9346 14.056 32.4338 14.0501 31.9248Z" fill="white"/>
<path d="M14.0501 31.9247C14.06 31.994 14.06 32.0643 14.0501 32.1336C14.0435 32.3365 14.0148 32.5381 13.9646 32.7348C13.8858 33.0481 13.7518 33.3449 13.569 33.6113C13.3217 33.9638 12.9969 34.2549 12.6195 34.4624L12.6512 34.4086C12.6512 34.6428 12.6512 34.8896 12.6512 35.1491V35.2124H12.5847L10.1667 35.263H10.0876V35.1934C10.0876 34.9719 10.0876 34.7377 10.0876 34.4972L10.1319 34.5669C9.74591 34.3928 9.4036 34.135 9.12986 33.812C8.85611 33.4891 8.65783 33.1092 8.54942 32.7C8.38247 32.0672 8.44065 31.3961 8.714 30.8014C8.9632 30.2533 9.37837 29.7973 9.90084 29.4978C10.1481 29.3657 10.4122 29.2678 10.6857 29.2067C10.9439 29.1546 11.2078 29.1365 11.4706 29.1529C11.9425 29.1863 12.3984 29.3376 12.7967 29.5927C13.3745 29.9638 13.7932 30.5369 13.9709 31.2001C14.0402 31.4383 14.067 31.6868 14.0501 31.9342C14.0202 31.6929 13.9736 31.454 13.9108 31.2191C13.7479 30.6861 13.426 30.2156 12.9882 29.8706C12.5504 29.5256 12.0176 29.3227 11.4611 29.2889C11.2106 29.2764 10.9595 29.2966 10.7142 29.3491C10.4571 29.41 10.2091 29.5047 9.9768 29.6307C9.47954 29.9147 9.08509 30.3489 8.85009 30.871C8.59369 31.4302 8.53998 32.0612 8.69817 32.6557C8.79976 33.0409 8.9856 33.3989 9.24228 33.7036C9.49896 34.0084 9.8201 34.2525 10.1825 34.4181L10.23 34.4403V34.4909C10.23 34.7314 10.23 34.9687 10.23 35.187L10.1509 35.1111L12.572 35.0858L12.5056 35.1491C12.5056 34.8928 12.5056 34.6428 12.5056 34.4118V34.3738H12.5372C13.1841 34.0283 13.6686 33.4416 13.8855 32.7411C13.9662 32.4748 14.0213 32.2015 14.0501 31.9247Z" fill="#263238"/>
<path d="M11.7055 35.1428C11.7048 35.1312 11.7048 35.1195 11.7055 35.108V35.0099C11.7055 34.9213 11.7276 34.7915 11.7498 34.627C11.7719 34.4625 11.8036 34.2568 11.851 34.0258C11.9051 33.761 11.9856 33.5023 12.0916 33.2537C12.1499 33.1074 12.223 32.9674 12.31 32.836C12.3576 32.7641 12.4216 32.7045 12.4967 32.662C12.5373 32.6409 12.5823 32.6299 12.628 32.6299C12.6738 32.6299 12.7188 32.6409 12.7594 32.662C12.7807 32.673 12.7995 32.6882 12.8147 32.7067C12.8299 32.7252 12.8413 32.7466 12.848 32.7696C12.8668 32.8152 12.8668 32.8664 12.848 32.912C12.804 32.998 12.7295 33.0645 12.6391 33.0987C12.5434 33.1322 12.4419 33.1461 12.3407 33.1396C12.2395 33.1331 12.1407 33.1063 12.05 33.0609C11.9594 33.0154 11.8788 32.9522 11.8131 32.875C11.7474 32.7978 11.6978 32.7081 11.6675 32.6114C11.6301 32.5102 11.6224 32.4004 11.6453 32.295C11.6571 32.2386 11.6883 32.1881 11.7333 32.1523C11.7784 32.1165 11.8346 32.0976 11.8922 32.0988C11.9222 32.1007 11.9511 32.1105 11.9761 32.1271C12.0011 32.1438 12.0213 32.1668 12.0346 32.1937C12.0634 32.2446 12.0724 32.3043 12.0599 32.3614C12.0281 32.4722 11.9615 32.5698 11.87 32.6399C11.784 32.7148 11.6833 32.771 11.5743 32.8048C11.4653 32.8385 11.3504 32.8492 11.237 32.836C11.1219 32.8202 11.0124 32.7765 10.9181 32.7087C10.8237 32.6408 10.7474 32.5509 10.6958 32.4468C10.6691 32.3956 10.6531 32.3394 10.6488 32.2817C10.6444 32.2241 10.6518 32.1661 10.6705 32.1114C10.6929 32.0561 10.7361 32.0118 10.7908 31.988C10.8178 31.9764 10.8469 31.9703 10.8762 31.9703C10.9056 31.9703 10.9347 31.9764 10.9617 31.988C11.0119 32.0154 11.0527 32.0573 11.0788 32.1083C11.1055 32.1569 11.1207 32.211 11.1231 32.2665C11.1368 32.4236 11.1046 32.5814 11.0304 32.7207C10.9563 32.8599 10.8434 32.9747 10.7053 33.0512C10.5318 33.1469 10.3301 33.1782 10.1357 33.1398C10.0391 33.126 9.95001 33.0804 9.88246 33.0101C9.85039 32.9741 9.83114 32.9285 9.8277 32.8804C9.82427 32.8323 9.83684 32.7845 9.86347 32.7443C9.89567 32.7095 9.9397 32.6881 9.9869 32.6842C10.0324 32.6785 10.0786 32.6862 10.1198 32.7063C10.1953 32.7487 10.2552 32.8141 10.2907 32.893C10.3635 33.0417 10.4205 33.1873 10.4806 33.3265C10.7085 33.8771 10.8731 34.3359 10.9839 34.6523C11.0377 34.8074 11.0788 34.9308 11.1073 35.0162L11.1358 35.1111V35.1459V35.1143L11.101 35.0194C11.0725 34.9339 11.0282 34.8105 10.9744 34.6555C10.8604 34.339 10.6927 33.8866 10.4616 33.336C10.4015 33.1968 10.3414 33.0512 10.2717 32.9057C10.2383 32.8316 10.1816 32.7705 10.1103 32.7316C10.0749 32.7123 10.0342 32.7049 9.9943 32.7106C9.95436 32.7163 9.91734 32.7348 9.88879 32.7633C9.86651 32.7986 9.85632 32.8403 9.85975 32.8819C9.86317 32.9236 9.88003 32.963 9.90778 32.9943C9.97276 33.0571 10.0558 33.098 10.1451 33.1113C10.332 33.1475 10.5257 33.1173 10.6927 33.0259C10.8672 32.926 10.9981 32.7647 11.0598 32.5734C11.0939 32.4716 11.1058 32.3637 11.0946 32.257C11.0911 32.2111 11.077 32.1666 11.0534 32.1271C11.0298 32.0875 10.9973 32.054 10.9585 32.0292C10.9364 32.0183 10.912 32.0126 10.8873 32.0126C10.8626 32.0126 10.8383 32.0183 10.8161 32.0292C10.7927 32.0382 10.7715 32.0523 10.754 32.0703C10.7366 32.0883 10.7232 32.1099 10.7148 32.1336C10.6955 32.1849 10.6878 32.2399 10.6922 32.2946C10.6966 32.3493 10.7129 32.4024 10.7402 32.45C10.7889 32.5492 10.861 32.635 10.9503 32.7001C11.0397 32.7651 11.1435 32.8075 11.2529 32.8234C11.3628 32.8368 11.4744 32.8269 11.5802 32.7942C11.686 32.7614 11.7837 32.7067 11.8669 32.6335C11.9532 32.5685 12.0164 32.4776 12.0473 32.3741C12.0572 32.3244 12.0494 32.2729 12.0251 32.2285C12.0142 32.2063 11.9976 32.1873 11.9771 32.1734C11.9565 32.1595 11.9327 32.1513 11.908 32.1494C11.8583 32.1477 11.8098 32.1646 11.7719 32.1969C11.7345 32.2292 11.708 32.2723 11.696 32.3203C11.6724 32.4254 11.679 32.5351 11.715 32.6367C11.7459 32.7312 11.7954 32.8185 11.8606 32.8935C11.9259 32.9685 12.0055 33.0296 12.0947 33.0734C12.267 33.1557 12.4648 33.1671 12.6454 33.105C12.7292 33.0734 12.7989 33.0128 12.8417 32.9341C12.8599 32.897 12.8631 32.8543 12.8507 32.8149C12.8384 32.7754 12.8113 32.7422 12.7752 32.7221C12.7384 32.7035 12.6978 32.6938 12.6565 32.6938C12.6153 32.6938 12.5746 32.7035 12.5378 32.7221C12.4659 32.7613 12.405 32.8179 12.3606 32.8867C12.275 33.0166 12.2018 33.1543 12.1422 33.298C12.0354 33.5444 11.9538 33.801 11.8985 34.0638C11.8479 34.2947 11.8162 34.4973 11.7909 34.6618C11.7656 34.8263 11.7529 34.9561 11.7403 35.0447C11.7276 35.1333 11.7403 35.1206 11.7403 35.1459C11.7286 35.1459 11.717 35.1448 11.7055 35.1428Z" fill="#263238"/>
<path d="M12.4016 35.5921L10.3254 35.6237C10.3049 35.6246 10.2845 35.6213 10.2653 35.614C10.2461 35.6068 10.2286 35.5957 10.2138 35.5815C10.199 35.5673 10.1873 35.5503 10.1793 35.5314C10.1712 35.5126 10.1671 35.4923 10.1671 35.4718C10.1663 35.4513 10.1696 35.4309 10.1768 35.4117C10.1841 35.3926 10.1951 35.3751 10.2093 35.3603C10.2235 35.3455 10.2405 35.3338 10.2594 35.3257C10.2783 35.3177 10.2985 35.3136 10.319 35.3136L12.3984 35.282C12.4188 35.2815 12.439 35.2851 12.458 35.2925C12.477 35.2999 12.4943 35.311 12.509 35.3251C12.5237 35.3392 12.5355 35.3561 12.5436 35.3747C12.5518 35.3934 12.5562 35.4135 12.5566 35.4338C12.5571 35.4545 12.5534 35.475 12.5458 35.4942C12.5382 35.5133 12.5268 35.5308 12.5124 35.5455C12.4979 35.5603 12.4807 35.572 12.4616 35.58C12.4426 35.588 12.4222 35.5921 12.4016 35.5921Z" fill="#263238"/>
<path d="M12.4051 35.728L10.3258 35.7597C10.3054 35.7601 10.2853 35.7645 10.2667 35.7727C10.248 35.7808 10.2311 35.7926 10.217 35.8073C10.2029 35.822 10.1919 35.8393 10.1844 35.8583C10.177 35.8773 10.1734 35.8975 10.1739 35.9179C10.1747 35.9593 10.1917 35.9987 10.2213 36.0277C10.2509 36.0567 10.2907 36.0729 10.3321 36.0729H10.56L10.8765 36.6425C10.8937 36.6751 10.9198 36.7022 10.9517 36.7206C10.9836 36.7391 11.02 36.7482 11.0569 36.7469H11.8006C11.8373 36.7458 11.873 36.7346 11.9037 36.7145C11.9344 36.6944 11.959 36.6662 11.9747 36.633L12.2595 36.0539H12.4178C12.4598 36.0539 12.5 36.0373 12.5297 36.0076C12.5594 35.9779 12.576 35.9377 12.576 35.8957C12.576 35.8538 12.5594 35.8135 12.5297 35.7839C12.5 35.7542 12.4598 35.7375 12.4178 35.7375L12.4051 35.728Z" fill="#263238"/>
<g opacity="0.2">
<path opacity="0.2" d="M9.48601 30.2317C9.64629 30.0775 9.83139 29.9513 10.0335 29.8584C10.1676 29.7936 10.3105 29.7488 10.4576 29.7255C10.5621 29.7255 10.6222 29.7255 10.6285 29.7444C10.6349 29.7634 10.4323 29.8742 10.1538 30.0609C9.79253 30.3036 9.50466 30.6407 9.32143 31.0355C9.15231 31.4345 9.09329 31.8716 9.15053 32.3012C9.19484 32.6397 9.27712 32.8454 9.23281 32.8676C9.18851 32.8897 9.16319 32.8422 9.10305 32.7568C9.02129 32.6328 8.95837 32.4974 8.91632 32.3549C8.85364 32.1403 8.82481 31.9172 8.83087 31.6936C8.84008 31.4178 8.90128 31.1462 9.01127 30.8931" fill="white"/>
</g>
<g opacity="0.2">
<path opacity="0.2" d="M11.294 29.8554C11.1199 29.8554 10.9775 29.8111 10.9459 29.7193C10.9142 29.6275 10.968 29.6212 11.0313 29.5832C11.1104 29.5385 11.2 29.5155 11.2908 29.5168C11.3823 29.5122 11.4732 29.5331 11.5535 29.5769C11.6168 29.6149 11.6485 29.6655 11.6421 29.7098" fill="white"/>
</g>
<path d="M11.9306 36.671C11.9306 36.671 11.8768 36.652 11.7882 36.6299C11.6727 36.5988 11.5531 36.586 11.4337 36.5919C11.3148 36.5975 11.1974 36.621 11.0855 36.6615C11.0001 36.6932 10.9495 36.7185 10.9463 36.7153C10.9851 36.6831 11.0289 36.6574 11.0761 36.6394C11.1892 36.5904 11.3104 36.5625 11.4337 36.5571C11.5561 36.5513 11.6784 36.5685 11.7945 36.6078C11.8436 36.6195 11.8899 36.641 11.9306 36.671Z" fill="#455A64"/>
<path d="M12.2594 36.051C12.2594 36.051 11.8828 36.0731 11.4207 36.0794C10.9587 36.0858 10.582 36.0794 10.582 36.0794C10.582 36.0794 10.9555 36.0573 11.4207 36.0478C11.886 36.0383 12.2594 36.0415 12.2594 36.051Z" fill="#455A64"/>
<path d="M12.1325 36.2976C12.0651 36.3137 11.9961 36.3222 11.9268 36.3229C11.8002 36.3229 11.6103 36.3419 11.4331 36.3482C11.2558 36.3546 11.0628 36.3482 10.9362 36.3482C10.8678 36.3551 10.7989 36.3551 10.7305 36.3482H10.9362H11.4331H11.9268C11.9943 36.3272 12.063 36.3103 12.1325 36.2976Z" fill="#455A64"/>
<path d="M9.12906 29.2226C9.09108 29.251 8.94233 29.1181 8.79041 28.9283C8.6385 28.7384 8.54988 28.5486 8.58469 28.5486C8.61951 28.5486 8.77142 28.6498 8.92017 28.8429C9.06893 29.0359 9.16387 29.1814 9.12906 29.2226Z" fill="#263238"/>
<path d="M11.0692 28.441C10.9654 28.1846 10.9117 27.9107 10.911 27.6341C10.8578 27.3614 10.8578 27.0809 10.911 26.8082C11.018 27.0648 11.0719 27.3403 11.0692 27.6183C11.1262 27.8895 11.1262 28.1697 11.0692 28.441Z" fill="#263238"/>
<path d="M13.1487 28.2131C13.1867 28.2384 13.1265 28.3966 13.0158 28.5612C12.905 28.7257 12.7847 28.8428 12.7467 28.8175C12.7088 28.7922 12.7689 28.6371 12.8797 28.4694C12.9904 28.3017 13.1107 28.1878 13.1487 28.2131Z" fill="#263238"/>
<path d="M107.135 36.0288C106.928 35.855 106.688 35.7258 106.429 35.6496C106.171 35.5733 105.899 35.5516 105.631 35.5858L101.704 35.5288C101.093 35.5591 100.489 35.3939 99.9788 35.0573C99.4777 34.7244 99.098 34.2381 98.8964 33.6714L98.7381 33.162C98.4216 32.1368 98.0861 31.0767 97.6874 30.0705C97.4599 29.4838 97.1978 28.9111 96.9025 28.3555C96.76 28.0802 96.586 27.8176 96.4277 27.5486C96.2695 27.2797 96.0891 27.0139 95.9213 26.7702C93.2485 22.8519 89.4193 19.8653 84.9675 18.2268C80.9994 16.8151 76.752 16.3682 72.5769 16.9232C70.7096 17.1649 68.8704 17.5888 67.0857 18.1888L65.8198 18.6413C65.5539 18.7457 65.2912 18.8533 65.0349 18.9578L64.6108 19.1318C63.8344 19.4646 63.0825 19.8515 62.3605 20.2899C61.0204 21.1005 59.806 22.1026 58.7557 23.2643C58.2752 23.7966 57.8331 24.3623 57.4327 24.9571C57.0972 25.4602 56.7681 26.0045 56.3978 26.6721C55.9262 27.5202 55.5116 28.3207 55.1128 29.0959L54.733 29.83L54.464 30.3426C54.1133 31.0547 53.7124 31.7409 53.2645 32.3962C52.027 34.1239 50.7009 34.7061 50.1819 34.877C50.0428 34.9296 49.9 34.9719 49.7546 35.0036L49.6185 35.0352L49.435 35.0668C49.3544 35.0822 49.273 35.0928 49.1913 35.0985L48.8305 35.127C48.7999 35.1294 48.7716 35.1437 48.7515 35.1667C48.7314 35.1898 48.7211 35.2198 48.7228 35.2504C48.7237 35.2809 48.7364 35.3098 48.7582 35.3311C48.7801 35.3524 48.8094 35.3643 48.8399 35.3643H49.2039C49.2962 35.3574 49.3881 35.3457 49.4793 35.3295L49.666 35.301L49.8053 35.2694C49.9624 35.238 50.1168 35.1946 50.2673 35.1396C50.8085 34.9687 52.2011 34.3739 53.4955 32.5829C53.9578 31.917 54.3703 31.2179 54.7299 30.4914C54.8185 30.3268 54.9071 30.156 54.9989 29.9819C55.1286 29.7383 55.2584 29.4883 55.3913 29.2352C55.7901 28.4663 56.2016 27.6752 56.6573 26.8398C57.0276 26.1817 57.3536 25.6438 57.6827 25.1501C58.0769 24.5696 58.5116 24.0177 58.9835 23.4984C60.0198 22.3489 61.2207 21.3594 62.5472 20.562C63.2579 20.1324 63.9983 19.7538 64.7627 19.4292L65.1836 19.2552C65.44 19.1476 65.6963 19.04 65.9559 18.9388L67.2028 18.4926C68.9669 17.9083 70.7837 17.4971 72.6275 17.2649C76.7453 16.7246 80.9325 17.1703 84.8441 18.5654C89.2192 20.1855 92.9806 23.1287 95.6049 26.9854C95.7599 27.2132 95.9372 27.4759 96.0986 27.7511C96.26 28.0264 96.4151 28.2701 96.5638 28.5359C96.8504 29.0796 97.1051 29.6396 97.3266 30.2129C97.719 31.2033 98.0323 32.2095 98.3647 33.2759L98.5292 33.7948C98.7573 34.4416 99.1893 34.9969 99.7604 35.3769C100.336 35.7588 101.017 35.9483 101.707 35.918L105.657 35.975C105.871 35.9471 106.088 35.9627 106.296 36.0209C106.503 36.079 106.697 36.1786 106.866 36.3135C107.01 36.4761 107.118 36.668 107.182 36.876C107.246 37.084 107.264 37.3034 107.236 37.5191L107.217 38.0412C107.217 38.3576 107.195 38.6741 107.176 38.9905C107.16 39.1677 107.147 39.348 107.131 39.5252C107.106 39.8417 107.081 40.1581 107.046 40.4745C106.819 42.4796 106.429 44.4629 105.878 46.4043C104.729 50.4252 102.997 54.2565 100.738 57.7765C99.4296 59.8556 97.92 61.8014 96.2315 63.586C95.4013 64.4613 94.512 65.2785 93.5698 66.032C92.6336 66.7706 91.6493 67.4461 90.6233 68.0539C88.5839 69.221 86.4299 70.1753 84.1953 70.9017L83.7395 71.0504C83.3471 71.1802 82.942 71.3131 82.5401 71.4301L81.7108 71.6801C81.4166 71.7644 81.1354 71.889 80.8753 72.0503C80.3538 72.3792 79.9452 72.8594 79.7043 73.4268C79.5847 73.7088 79.51 74.0077 79.4827 74.3128C79.4669 74.5248 79.4669 74.7273 79.4827 74.9235V75.1798C79.4827 81.6474 79.334 87.7481 79.1884 93.6494C79.1314 95.9719 79.0745 98.2406 79.0301 100.443C79.0223 100.939 79.0722 101.433 79.1789 101.917C79.2687 102.428 79.522 102.895 79.9005 103.25C80.1143 103.413 80.3701 103.514 80.6384 103.538C80.9067 103.563 81.1764 103.511 81.4165 103.389C81.6482 103.275 81.8515 103.11 82.0115 102.908C82.1673 102.712 82.2893 102.492 82.3723 102.256C82.6108 101.483 82.723 100.676 82.7046 99.8671V99.5222C82.7236 98.6678 82.7046 97.823 82.7046 96.9908V96.6301C82.7046 95.839 82.7046 95.0891 82.7046 94.3392V94.2221C82.7 93.4533 82.7635 92.6856 82.8945 91.928C82.9261 91.7564 82.9894 91.5922 83.0812 91.4439C83.1971 91.3162 83.3397 91.2157 83.499 91.1496C83.6447 91.0726 83.8064 91.0305 83.9711 91.0267C84.1359 91.0228 84.2993 91.0573 84.4485 91.1275C84.5771 91.2341 84.6803 91.3682 84.7504 91.5198C84.8205 91.6715 84.8557 91.8369 84.8536 92.004C84.8679 92.2622 84.8679 92.521 84.8536 92.7792C84.8536 92.8899 84.8536 93.0038 84.8536 93.1146L84.67 107.835C84.6307 108.183 84.6307 108.534 84.67 108.882C84.6919 109.233 84.82 109.57 85.0372 109.847C85.1654 109.986 85.3373 110.078 85.5246 110.106C85.686 110.125 85.8411 110.144 85.974 110.148C86.2588 110.163 86.5342 110.17 86.819 110.17H87.0121C87.9394 110.17 88.7401 110.144 89.3921 110.122L91.1866 110.046C91.5601 110.027 91.7531 110.012 91.7531 110.012C91.7836 110.009 91.812 109.995 91.8321 109.972C91.8522 109.949 91.8625 109.919 91.8607 109.888C91.8571 109.858 91.8431 109.83 91.8212 109.81C91.7992 109.789 91.7707 109.776 91.7405 109.774C91.7405 109.774 91.5506 109.774 91.1771 109.793L89.3193 109.85C88.6389 109.869 87.7938 109.891 86.819 109.882C86.531 109.882 86.2683 109.882 85.9961 109.857H85.8632C85.7549 109.866 85.6459 109.854 85.5425 109.82C85.4392 109.786 85.3437 109.732 85.2619 109.66C85.0829 109.43 84.9811 109.148 84.9707 108.857C84.9368 108.524 84.9421 108.188 84.9865 107.857L85.2112 93.1273C85.2112 93.0165 85.2112 92.9058 85.2112 92.795C85.227 92.5231 85.227 92.2505 85.2112 91.9786C85.1933 91.7713 85.1454 91.5678 85.0688 91.3743C84.9901 91.1568 84.8422 90.9712 84.6479 90.8458C84.4512 90.7201 84.2192 90.6613 83.9864 90.6781C83.7677 90.695 83.5535 90.7496 83.3534 90.8395C83.141 90.9272 82.9523 91.0638 82.8027 91.2382C82.674 91.429 82.5867 91.6445 82.5464 91.8711C82.411 92.6421 82.3433 93.4234 82.3438 94.2063V94.3645C82.328 95.1334 82.3438 95.8928 82.3438 96.6997V97.0161C82.3438 97.8325 82.3438 98.6773 82.3438 99.5222V99.8386C82.3612 100.615 82.2543 101.39 82.0273 102.133C81.966 102.331 81.8647 102.514 81.7297 102.671C81.5947 102.828 81.4288 102.956 81.2424 103.047C81.0656 103.139 80.8662 103.18 80.6674 103.163C80.4686 103.147 80.2784 103.075 80.1189 102.955C79.809 102.649 79.6021 102.255 79.527 101.826C79.4279 101.372 79.3822 100.908 79.3909 100.443C79.4353 98.2881 79.4922 96.0732 79.5492 93.7981C79.7011 87.8493 79.8657 81.6981 79.8657 75.1671V74.9108C79.8657 74.7178 79.8657 74.5184 79.8657 74.3349C79.8896 74.0711 79.9547 73.8127 80.0587 73.5692C80.2673 73.0752 80.6232 72.6575 81.0778 72.3731C81.307 72.2324 81.5554 72.1258 81.8153 72.0567L82.6445 71.8067C83.0496 71.6865 83.461 71.5536 83.8566 71.4238L84.3092 71.2751C86.5723 70.5475 88.7548 69.5901 90.8226 68.4178C91.8646 67.7984 92.8647 67.1113 93.8167 66.3611C94.7724 65.5958 95.6753 64.767 96.5195 63.8803C98.2259 62.0773 99.7513 60.1113 101.074 58.0107C103.353 54.4558 105.1 50.5874 106.261 46.5277C106.818 44.5656 107.213 42.5612 107.442 40.5346C107.476 40.2182 107.502 39.9018 107.527 39.5854C107.527 39.4082 107.556 39.231 107.571 39.0506C107.59 38.7342 107.603 38.4178 107.613 38.1013L107.632 37.5761C107.668 37.2975 107.643 37.0142 107.557 36.7466C107.471 36.479 107.327 36.2338 107.135 36.0288Z" fill="#455A64"/>
</g>
<defs>
<clipPath id="clip0">
<rect width="148" height="140" fill="white"/>
</clipPath>
</defs>
</svg>
