<svg width="38" height="60" viewBox="0 0 38 60" fill="none" xmlns="http://www.w3.org/2000/svg">
<path d="M37.6214 23.7931C37.6214 13.5093 29.2844 5.17236 19.0006 5.17236C8.71684 5.17236 0.379883 13.5093 0.379883 23.7931C0.379883 34.0769 8.71684 42.4138 19.0006 42.4138C29.2844 42.4138 37.6214 34.077 37.6214 23.7931Z" fill="#ECF0F1"/>
<path d="M15.9614 10.6656C15.4844 10.6656 15.0552 10.3335 14.9506 9.84728C14.8317 9.28865 15.1865 8.73939 15.7461 8.61939C16.4464 8.46939 17.1664 8.36697 17.8875 8.31529C18.4709 8.28224 18.952 8.70424 18.9934 9.27318C19.0347 9.84318 18.6055 10.3387 18.0355 10.3791C17.4106 10.4245 16.7858 10.5126 16.1785 10.6429C16.1062 10.6583 16.0327 10.6656 15.9614 10.6656ZM23.9227 11.2067C23.8058 11.2067 23.6858 11.1859 23.57 11.1436C22.9855 10.9326 22.3783 10.7598 21.767 10.6306C21.2073 10.5136 20.8494 9.96541 20.9673 9.40572C21.0841 8.84709 21.6365 8.48709 22.1921 8.60603C22.8986 8.75498 23.5991 8.95467 24.2756 9.19982C24.8125 9.39435 25.0897 9.98709 24.8953 10.5239C24.7421 10.945 24.3449 11.2067 23.9227 11.2067ZM10.4735 13.1277C10.1548 13.1277 9.84044 12.9808 9.63758 12.7036C9.30032 12.2422 9.40063 11.5957 9.86211 11.2585C10.4435 10.8344 11.0591 10.4463 11.6921 10.1071C12.197 9.83814 12.8229 10.0274 13.0929 10.5301C13.3629 11.0329 13.1736 11.6609 12.6698 11.9309C12.1215 12.2247 11.5868 12.5609 11.0829 12.9292C10.8986 13.0636 10.6855 13.1277 10.4735 13.1277ZM29.0311 14.3908C28.7735 14.3908 28.5148 14.2945 28.3141 14.1011C27.8652 13.6697 27.3811 13.2652 26.8752 12.898C26.4127 12.5618 26.3093 11.9153 26.6444 11.4529C26.9806 10.9904 27.6282 10.8891 28.0896 11.2232C28.673 11.6453 29.2306 12.1129 29.7479 12.6104C30.1606 13.0067 30.1731 13.6615 29.7768 14.0721C29.5741 14.2842 29.3021 14.3908 29.0311 14.3908ZM6.44926 17.605C6.27337 17.605 6.09547 17.5615 5.932 17.4663C5.43747 17.1809 5.26895 16.5488 5.55442 16.0533C5.91337 15.4326 6.31989 14.8295 6.76368 14.2606C7.11641 13.8106 7.76504 13.7298 8.2161 14.0806C8.6661 14.4322 8.74684 15.083 8.39505 15.533C8.00915 16.0275 7.65641 16.5499 7.34504 17.0878C7.15379 17.4198 6.80622 17.605 6.44926 17.605ZM32.4138 19.3667C32.0062 19.3667 31.6203 19.1236 31.4559 18.7232C31.22 18.1459 30.9418 17.5811 30.6283 17.0421C30.3397 16.5486 30.5073 15.9156 31.0007 15.628C31.4942 15.3404 32.1273 15.507 32.4148 16.0004C32.777 16.6221 33.0986 17.2739 33.3717 17.9401C33.5879 18.4688 33.3334 19.0729 32.8047 19.2891C32.6765 19.3408 32.5441 19.3667 32.4138 19.3667ZM4.59547 23.3298C4.56032 23.3298 4.52411 23.3277 4.48895 23.3236C3.92001 23.2657 3.50622 22.7577 3.56516 22.1898C3.63864 21.4709 3.76379 20.7529 3.93653 20.0568C4.07516 19.5022 4.63579 19.163 5.19032 19.3027C5.74579 19.4403 6.08305 20.001 5.94548 20.5565C5.79548 21.1586 5.68684 21.7792 5.62274 22.401C5.56895 22.9326 5.11895 23.3298 4.59547 23.3298ZM33.4762 25.288H33.4452C32.8741 25.2715 32.4252 24.7945 32.4417 24.2226C32.4458 24.0798 32.4489 23.9371 32.4489 23.7933C32.4489 23.3112 32.422 22.824 32.3714 22.3471C32.3103 21.7792 32.7211 21.2692 33.2889 21.2081C33.8465 21.146 34.3668 21.5568 34.4279 22.1257C34.4879 22.676 34.5168 23.2378 34.5168 23.7933C34.5168 23.9578 34.5147 24.1212 34.5096 24.2847C34.493 24.8453 34.0338 25.288 33.4762 25.288ZM5.22864 29.3142C4.79212 29.3142 4.38758 29.0359 4.24485 28.5994C4.02137 27.9145 3.84454 27.208 3.71938 26.5004C3.62012 25.9377 3.99559 25.4018 4.55833 25.3015C5.11801 25.2053 5.65696 25.5788 5.75727 26.1404C5.86485 26.7539 6.01801 27.3653 6.21137 27.958C6.38926 28.5011 6.09137 29.0856 5.54926 29.2626C5.44274 29.2977 5.33411 29.3142 5.22864 29.3142ZM32.0373 31.1318C31.8862 31.1318 31.7321 31.0977 31.5862 31.0283C31.0721 30.778 30.8579 30.1594 31.1073 29.6453C31.3794 29.0836 31.6152 28.498 31.8056 27.9053C31.9804 27.3612 32.5648 27.0612 33.108 27.238C33.6521 27.4129 33.9501 27.9963 33.7753 28.5394C33.555 29.2242 33.2839 29.8997 32.9683 30.5483C32.7903 30.9167 32.4211 31.1318 32.0373 31.1318ZM8.24727 34.5188C7.96485 34.5188 7.68348 34.4039 7.47864 34.1774C6.99758 33.6436 6.54864 33.0715 6.14516 32.4757C5.82442 32.003 5.94758 31.3595 6.42032 31.0388C6.89411 30.718 7.53653 30.8422 7.85727 31.315C8.20801 31.8312 8.59696 32.3288 9.01485 32.7912C9.39758 33.2153 9.36454 33.8701 8.93938 34.2529C8.74168 34.4308 8.49348 34.5188 8.24727 34.5188ZM28.3452 35.8842C28.0514 35.8842 27.7597 35.7601 27.5548 35.518C27.1856 35.0826 27.2394 34.4297 27.6759 34.0604C28.1538 33.6559 28.6059 33.2163 29.0207 32.7529C29.4015 32.3267 30.0562 32.2904 30.4815 32.6712C30.9066 33.0519 30.9439 33.7057 30.5632 34.1319C30.0853 34.6668 29.5639 35.1736 29.0124 35.6403C28.8189 35.8045 28.5811 35.8842 28.3452 35.8842ZM13.1135 38.0598C12.9718 38.0598 12.8289 38.0309 12.6924 37.9698C12.0376 37.6781 11.3941 37.3357 10.7817 36.9519C10.2976 36.6478 10.1506 36.0095 10.4538 35.5254C10.7568 35.0413 11.3952 34.8954 11.8803 35.1975C12.4111 35.5306 12.9676 35.8275 13.5344 36.081C14.0568 36.3127 14.2906 36.9251 14.0579 37.4465C13.8873 37.8312 13.5086 38.0598 13.1135 38.0598ZM23.0444 38.7363C22.5965 38.7363 22.1837 38.4426 22.0523 37.9904C21.892 37.4421 22.2075 36.868 22.7558 36.7077C23.3537 36.5339 23.9444 36.3147 24.5144 36.058C25.0327 35.8242 25.6472 36.0539 25.882 36.5763C26.1168 37.0967 25.885 37.7101 25.3647 37.945C24.7078 38.2409 24.025 38.4933 23.334 38.6939C23.2379 38.7229 23.1406 38.7363 23.0444 38.7363ZM19.0586 39.3104H19.0007C18.2786 39.3104 17.5524 39.2608 16.8438 39.1604C16.2768 39.0818 15.8827 38.5594 15.9614 37.9935C16.0411 37.4276 16.5676 37.0252 17.1293 37.1121C17.7447 37.198 18.3738 37.2414 19.0006 37.2414C19.5717 37.2414 20.0641 37.7049 20.0641 38.2759C20.0641 38.847 19.6297 39.3104 19.0586 39.3104Z" fill="#BDC3C7"/>
<path d="M19.0004 5.17242C23.2904 5.17242 27.2307 6.63832 30.3796 9.07652V0H7.62109V9.07652C10.77 6.63832 14.7104 5.17242 19.0004 5.17242Z" fill="#26B99A"/>
<path d="M19.0004 42.4139C14.7104 42.4139 10.77 40.948 7.62109 38.5098V60.0001L19.0004 48.6208L30.3796 60.0001V38.5098C27.2307 40.948 23.2904 42.4139 19.0004 42.4139Z" fill="#26B99A"/>
<path d="M23.1386 32.0689H14.8628C14.4655 32.0689 14.1025 31.8413 13.9307 31.4824C13.7579 31.1245 13.8066 30.6983 14.0548 30.3878L20.8999 21.8316C21.6623 20.8789 21.563 19.7524 21.2164 19.0157C20.8016 18.1354 19.9927 17.6016 19.0523 17.586H19.0513C17.2886 17.586 15.8972 18.9785 15.8972 20.6895C15.8972 21.2606 15.4337 21.724 14.8627 21.724C14.2916 21.724 13.8281 21.2606 13.8281 20.6895C13.8281 17.8374 16.1484 15.5171 19.0005 15.5171C20.8078 15.545 22.3409 16.5485 23.0878 18.1344C23.8699 19.7936 23.6495 21.7065 22.5146 23.1247L17.0155 29.9999H23.1386C23.7096 29.9999 24.1731 30.4634 24.1731 31.0345C24.1731 31.6055 23.7096 32.0689 23.1386 32.0689Z" fill="#BDC3C7"/>
</svg>
