<svg width="32" height="32" viewBox="0 0 32 32" fill="none" xmlns="http://www.w3.org/2000/svg">
<path d="M16 2C13.2311 2 10.5243 2.82109 8.22202 4.35943C5.91973 5.89777 4.12532 8.08427 3.06569 10.6424C2.00607 13.2006 1.72882 16.0155 2.26901 18.7313C2.80921 21.447 4.14258 23.9416 6.10051 25.8995C8.05845 27.8574 10.553 29.1908 13.2687 29.731C15.9845 30.2712 18.7994 29.9939 21.3576 28.9343C23.9157 27.8747 26.1022 26.0803 27.6406 23.778C29.1789 21.4757 30 18.7689 30 16C30 12.287 28.525 8.72601 25.8995 6.1005C23.274 3.475 19.713 2 16 2ZM24 24.919V24.311C24.0278 22.9474 23.5197 21.6273 22.5848 20.6342C21.6499 19.6412 20.3628 19.0544 19 19H13C11.6384 19.0547 10.3526 19.6417 9.41939 20.6348C8.48617 21.6279 7.98008 22.9476 8.01001 24.31C8.01001 24.321 8.00001 24.332 8.00001 24.343V24.928C6.18591 23.3087 4.90634 21.1766 4.33067 18.8141C3.755 16.4515 3.91036 13.9698 4.7762 11.6975C5.64204 9.42515 7.17753 7.46933 9.17942 6.08891C11.1813 4.70849 13.5552 3.96855 15.9869 3.96703C18.4186 3.96551 20.7934 4.70248 22.797 6.0804C24.8007 7.45832 26.3386 9.41221 27.2073 11.6835C28.0759 13.9547 28.2344 16.4362 27.6617 18.7995C27.089 21.1628 25.8121 23.2964 24 24.918V24.919Z" fill="#2E384D"/>
<path d="M16 7C15.0111 7 14.0444 7.29324 13.2222 7.84265C12.3999 8.39206 11.759 9.17295 11.3806 10.0866C11.0022 11.0002 10.9031 12.0055 11.0961 12.9755C11.289 13.9454 11.7652 14.8363 12.4645 15.5355C13.1637 16.2348 14.0546 16.711 15.0246 16.9039C15.9945 17.0969 16.9998 16.9978 17.9134 16.6194C18.8271 16.241 19.6079 15.6001 20.1574 14.7779C20.7068 13.9556 21 12.9889 21 12C21 10.6739 20.4732 9.40215 19.5355 8.46447C18.5979 7.52678 17.3261 7 16 7Z" fill="#2E384D"/>
</svg>
